<?xml version="1.0" encoding="utf-8"?>
<!-- Generator: Adobe Illustrator 27.0.0, SVG Export Plug-In . SVG Version: 6.00 Build 0)  -->
<svg version="1.1" id="레이어_1" xmlns="http://www.w3.org/2000/svg" xmlns:xlink="http://www.w3.org/1999/xlink" x="0px"
	 y="0px" viewBox="0 0 32 32" style="enable-background:new 0 0 32 32;" xml:space="preserve">
<style type="text/css">
	.st0{fill:#121212;}
	.st1{fill:#FFFFFF;}
	.st2{fill:#F9A0BD;}
	.st3{fill:#EDB964;}
</style>
<g>
	<path class="st0" d="M28,32H4c-2.21,0-4-1.79-4-4V4c0-2.21,1.79-4,4-4h24c2.21,0,4,1.79,4,4v24C32,30.21,30.21,32,28,32z"/>
	<g>
		<g>
			<g>
				<path class="st1" d="M25.44,25.77l-1.36,0.27c-0.03,0.01-0.05,0.01-0.07,0.01c0,0,0,0,0,0c-0.08,0-0.14-0.02-0.2-0.06
					c0.02,0.09,0.03,0.19,0.03,0.28c0.33,1.44-0.71,2.7-1.91,3.32c-1.02,0.53-2.29,0.85-3.86,0.97c-0.59,0.04-1.22,0.07-1.85,0.07
					c-0.75,0-1.54-0.03-2.33-0.1c-1.58-0.13-2.82-0.42-3.88-0.94c-1.1-0.53-2.16-1.58-1.85-2.92c0-0.02,0.01-0.04,0.02-0.05
					c0-0.06,0.01-0.12,0.02-0.18c0.01-0.06,0.02-0.12,0.03-0.18C8.16,26.3,8.08,26.33,8,26.33c0,0,0,0,0,0c-0.02,0-0.05,0-0.07-0.01
					l-1.36-0.27c-0.17-0.03-0.28-0.18-0.26-0.35c0.02-0.16,0.15-0.34,0.36-0.34c0.02,0,0.05,0,0.07,0.01l1.36,0.27
					c0.05,0.01,0.1,0.03,0.13,0.06c-0.01-0.09-0.01-0.17-0.03-0.26c-0.01-0.01-0.01-0.02-0.01-0.03c-0.88-2.28-0.73-4.98,0.39-7.26
					c-0.83-1.64-1.36-3.41-1.55-5.25c-0.01-0.08,0.02-0.17,0.09-0.25c0.07-0.07,0.16-0.12,0.24-0.12c0.01,0,0.02,0,0.03,0
					c1.62,0.21,3.15,0.72,4.55,1.5c0.07,0.02,0.14,0.03,0.21,0.05c0.08-0.02,0.17-0.04,0.25-0.06c0.03-0.01,0.06-0.01,0.1-0.01
					c0.09-0.02,0.18-0.03,0.27-0.04c1.13-0.24,2.28-0.36,3.44-0.36c0.95,0,1.91,0.08,2.86,0.25c0.04,0,0.08,0,0.12,0.01
					c0.1,0.02,0.21,0.04,0.31,0.06c0.03,0,0.06,0.01,0.09,0.01c0.04,0,0.08,0,0.11,0.01c0.13-0.06,0.27-0.12,0.4-0.16
					c1.39-0.78,2.91-1.27,4.52-1.48c0.01,0,0.02,0,0.03,0c0.09,0,0.18,0.04,0.24,0.12c0.07,0.07,0.1,0.16,0.09,0.25
					c-0.2,1.84-0.72,3.61-1.55,5.25c1.12,2.27,1.27,4.98,0.39,7.26c-0.01,0.02-0.02,0.04-0.02,0.05c0,0,0,0,0,0.01
					c-0.01,0.06-0.01,0.13-0.02,0.19c0.04-0.03,0.09-0.05,0.14-0.06l1.36-0.27c0.03-0.01,0.05-0.01,0.07-0.01
					c0.21,0,0.34,0.17,0.36,0.34C25.72,25.59,25.61,25.73,25.44,25.77z M25.68,26.6l-1.06-0.13c-0.02,0-0.03,0-0.04,0
					c-0.17,0-0.3,0.12-0.31,0.3c-0.01,0.17,0.1,0.37,0.33,0.4l1.06,0.13c0.02,0,0.03,0,0.05,0c0.17,0,0.3-0.12,0.31-0.3
					C26.02,26.82,25.91,26.62,25.68,26.6z M7.42,26.75c-0.01,0-0.03,0-0.05,0l-1.06,0.13c-0.23,0.03-0.34,0.23-0.33,0.4
					c0.01,0.18,0.14,0.3,0.31,0.3c0,0,0,0,0,0c0.01,0,0.03,0,0.05,0l1.06-0.13c0.23-0.03,0.34-0.23,0.33-0.4
					C7.71,26.87,7.59,26.75,7.42,26.75z M15.65,12.08v1.16c0,0.19,0.16,0.35,0.35,0.35c0.19,0,0.35-0.16,0.35-0.35v-1.16
					c0-0.19-0.16-0.35-0.35-0.35C15.81,11.73,15.65,11.88,15.65,12.08z M16,11.68c2.84,0,5.15-2.31,5.15-5.15S18.84,1.38,16,1.38
					c-2.84,0-5.15,2.31-5.15,5.15S13.16,11.68,16,11.68z"/>
				<path class="st0" d="M13.63,25.87c-1.22-0.93-2.66-1.6-4.17-1.93c-0.03-0.01-0.06-0.01-0.08-0.01c-0.2,0-0.33,0.17-0.35,0.33
					c-0.02,0.18,0.08,0.32,0.26,0.36c1.45,0.32,2.78,0.95,3.97,1.84c0.06,0.05,0.13,0.07,0.19,0.07c0,0,0,0,0,0
					c0.13,0,0.26-0.1,0.31-0.24C13.81,26.13,13.76,25.97,13.63,25.87z"/>
				<path class="st0" d="M22.97,24.31c-0.02-0.16-0.15-0.33-0.35-0.33c-0.03,0-0.06,0-0.08,0.01c-1.5,0.34-2.94,1.01-4.17,1.93
					c-0.13,0.1-0.18,0.26-0.12,0.42c0.05,0.15,0.17,0.24,0.31,0.24c0,0,0,0,0,0c0.07,0,0.13-0.02,0.19-0.07
					c1.19-0.9,2.52-1.52,3.97-1.84C22.89,24.63,22.99,24.48,22.97,24.31z"/>
				<ellipse class="st2" cx="16" cy="28.03" rx="0.98" ry="1.21"/>
				<path class="st2" d="M10.83,15.22c-0.18-0.26-1.51-1.27-1.77-1.49c-0.08-0.07-0.19-0.1-0.29-0.1c-0.96,0.03-0.06,2.73,0.22,3.28
					c0.67,0.69,1.28-0.8,1.89-1.07C11.06,15.66,11.06,15.37,10.83,15.22z"/>
				<path class="st2" d="M21.17,15.17c0.18-0.26,1.51-1.27,1.77-1.49c0.08-0.07,0.19-0.1,0.29-0.1c0.96,0.03,0.06,2.73-0.22,3.28
					c-0.67,0.69-1.28-0.8-1.89-1.07C20.94,15.61,20.94,15.33,21.17,15.17z"/>
				<path class="st3" d="M16,2.21c-2.6,0-4.71,2.11-4.71,4.71s2.11,4.71,4.71,4.71c2.6,0,4.71-2.11,4.71-4.71S18.6,2.21,16,2.21z
					 M16,6.04c-0.73,0-1.32-0.59-1.32-1.32S15.27,3.4,16,3.4c0.73,0,1.32,0.59,1.32,1.32S16.73,6.04,16,6.04z"/>
			</g>
		</g>
	</g>
</g>
</svg>
