<?xml version="1.0" encoding="utf-8"?>
<!-- Generator: Adobe Illustrator 27.0.0, SVG Export Plug-In . SVG Version: 6.00 Build 0)  -->
<svg version="1.1" id="레이어_1" xmlns="http://www.w3.org/2000/svg" xmlns:xlink="http://www.w3.org/1999/xlink" x="0px"
	 y="0px" viewBox="0 0 24 24" style="enable-background:new 0 0 24 24;" xml:space="preserve">
<style type="text/css">
	.st0{fill:#231815;}
</style>
<g>
	<path class="st0" d="M13.09,9.09c-0.35,0.27-0.62,0.66-0.73,1.12c-0.13-0.46-0.4-0.84-0.74-1.11c-0.35-0.28-0.75-0.43-1.17-0.44
		c-0.43,0-0.84,0.13-1.15,0.42c-0.31,0.3-0.51,0.74-0.51,1.39c0,0.88,0.43,1.76,1.1,2.55c0.66,0.78,1.56,1.48,2.48,1.97
		c0.88-0.48,1.8-1.21,2.46-1.99c0.67-0.78,1.11-1.66,1.11-2.54c0-0.65-0.19-1.1-0.5-1.39c-0.3-0.29-0.72-0.42-1.15-0.42
		C13.83,8.66,13.43,8.82,13.09,9.09z"/>
	<path class="st0" d="M15.89,22.95V24H24v-9c-0.5-0.49-1.1-0.88-1.77-1.12c1.05-0.57,1.77-1.66,1.77-2.94c0-0.47-0.1-0.91-0.27-1.31
		c0.11-0.24,0.16-0.51,0.19-0.78c0.06-0.57,0.03-1.15-0.08-1.71c-0.04-0.2-0.07-0.47-0.29-0.55c-0.24-0.09-0.51,0.18-0.7,0.31
		c-0.4,0.28-0.78,0.58-1.16,0.88c-0.33-0.11-0.67-0.18-1.04-0.18c-0.37,0-0.71,0.07-1.04,0.18c-0.38-0.3-0.76-0.6-1.16-0.88
		c-0.18-0.13-0.46-0.4-0.7-0.31c-0.22,0.08-0.25,0.35-0.29,0.55c-0.11,0.56-0.14,1.14-0.08,1.71c0.03,0.27,0.08,0.54,0.19,0.78
		c-0.17,0.4-0.27,0.85-0.27,1.31c0,1.28,0.72,2.37,1.77,2.94c-1.56,0.55-2.75,1.89-3.08,3.55c-0.34,1.01-0.81,2.1-1.49,3.22
		c-0.46,0.75-0.95,1.4-1.44,1.98c-0.83-0.8-1.69-1.8-2.46-3.06c-0.74-1.21-1.24-2.4-1.59-3.48L9,16.1
		c-0.42-1.78-1.71-3.23-3.42-3.83c1.18-0.63,1.99-1.86,1.99-3.3c0-1.08-0.46-2.04-1.19-2.73l0.86-4.22C7.36,0.97,6.81,0.06,6.02,0
		C5.22-0.05,4.48,0.76,4.36,1.82L4.13,5.25C4.03,5.25,3.92,5.22,3.81,5.22S3.6,5.25,3.49,5.25L3.27,1.82C3.15,0.76,2.41-0.05,1.61,0
		C0.82,0.06,0.27,0.97,0.39,2.03l0.86,4.22C0.52,6.94,0.06,7.9,0.06,8.98c0,1.43,0.81,2.66,1.99,3.3C1.26,12.55,0.57,13,0,13.58V24
		h9.16v-2.19c0.67,0.88,1.36,1.6,2.02,2.19H15C15.3,23.68,15.6,23.33,15.89,22.95z"/>
</g>
</svg>
