<?xml version="1.0" encoding="utf-8"?>
<!-- Generator: Adobe Illustrator 27.0.0, SVG Export Plug-In . SVG Version: 6.00 Build 0)  -->
<svg version="1.1" id="레이어_1" xmlns="http://www.w3.org/2000/svg" xmlns:xlink="http://www.w3.org/1999/xlink" x="0px"
	 y="0px" viewBox="0 0 24 24" style="enable-background:new 0 0 24 24;" xml:space="preserve">
<style type="text/css">
	.st0{fill:#231815;}
</style>
<path class="st0" d="M14.52,9.48C13.89,8.75,13.27,8,12.66,7.24l5.71-5.34L24,0l-1.89,5.62l-5.65,6.04
	c-0.24-0.26-0.48-0.53-0.72-0.79l5.43-5.8l1.18-3.41L14.52,9.48z M12.11,16.3l-2.96,3.16l0.66,0.66c0.2,0.03,0.39,0.11,0.54,0.26
	c0.4,0.4,0.4,1.04,0,1.43c-0.4,0.4-1.04,0.4-1.43,0c-0.15-0.15-0.23-0.35-0.26-0.54l-1.71-1.71l-3.49,3.49
	c0.06,0.31,0.03,0.58-0.14,0.74C2.89,24.21,1.86,23.85,1,23c-0.86-0.86-1.22-1.89-0.8-2.31c0.17-0.17,0.43-0.2,0.74-0.14l3.49-3.49
	l-1.71-1.71c-0.2-0.03-0.39-0.11-0.54-0.26c-0.4-0.4-0.4-1.04,0-1.43c0.4-0.4,1.04-0.4,1.43,0c0.15,0.15,0.23,0.35,0.26,0.54
	l0.66,0.66l3.99-3.73c0.57,0.88,1.15,1.76,1.75,2.62l-3.41,3.41l1.54,1.57l3.06-3.27C11.67,15.73,11.9,16.02,12.11,16.3z
	 M2.08,21.92c-0.4-0.4-0.84-0.6-0.99-0.45s0.06,0.59,0.45,0.99c0.4,0.4,0.84,0.6,0.99,0.45S2.48,22.31,2.08,21.92z M23.82,20.62
	c0.43,0.43,0.06,1.49-0.82,2.37c-0.88,0.88-1.95,1.25-2.37,0.82c-0.17-0.17-0.21-0.44-0.14-0.77l-3.59-3.59l-1.76,1.76
	c-0.04,0.2-0.11,0.4-0.27,0.56c-0.41,0.41-1.07,0.41-1.47,0c-0.41-0.41-0.41-1.07,0-1.47c0.16-0.16,0.36-0.24,0.56-0.27l1.18-1.18
	c-3.43-4.16-6.53-8.74-9.21-13.68C5.56,3.46,5.22,1.73,4.9,0c1.17,1.1,2.42,2.14,3.72,3.12c2.99,4.42,6.41,8.45,10.18,12.06
	l1.24-1.24c0.04-0.2,0.11-0.4,0.27-0.56c0.41-0.41,1.07-0.41,1.47,0c0.41,0.41,0.41,1.07,0,1.47c-0.16,0.16-0.36,0.24-0.56,0.27
	l-1.76,1.76l3.59,3.59C23.38,20.41,23.65,20.45,23.82,20.62z M16.97,17.01c-4.19-4.51-7.92-9.6-11.06-15.17
	c0.22,1.05,0.44,2.09,0.66,3.13c2.68,4.79,5.76,9.24,9.16,13.28L16.97,17.01z M19.38,18.33h-1.05l0,1.05h1.05L19.38,18.33z
	 M20.67,19.61l-1.05,0v1.05l1.05,0V19.61z M21.96,21.95l0-1.05h-1.05l0,1.05H21.96z"/>
<polygon class="st0" points="2.87,9.14 2.02,7.15 0.03,6.3 2.14,5.58 2.87,3.47 3.6,5.58 5.7,6.3 3.6,7.03 "/>
</svg>
