<?xml version="1.0" encoding="utf-8"?>
<!-- Generator: Adobe Illustrator 27.0.0, SVG Export Plug-In . SVG Version: 6.00 Build 0)  -->
<svg version="1.1" id="레이어_1" xmlns="http://www.w3.org/2000/svg" xmlns:xlink="http://www.w3.org/1999/xlink" x="0px"
	 y="0px" viewBox="0 0 24 24" style="enable-background:new 0 0 24 24;" xml:space="preserve">
<style type="text/css">
	.st0{fill:#FFFFFF;}
</style>
<g>
	<path class="st0" d="M11.59,18.74c-0.3,0.3-0.72,0.68-1.2,0.43c-0.6-0.31-0.26-0.78-0.09-1.22c0.08-0.2,0.42-0.49-0.08-0.67
		c-3.19-1.12-4.9-3.77-6.59-6.44c-0.28-0.45-0.54-1.14-1.12-0.99c-0.87,0.23-1.7,0.1-2.19,0.31c-0.2,0.49-0.08,1.32-0.31,2.19
		c-0.15,0.58,0.54,0.83,0.99,1.12c2.66,1.69,5.31,3.39,6.44,6.59c0.18,0.5,0.46,0.16,0.67,0.08c0.44-0.17,0.9-0.51,1.22,0.09
		c0.25,0.48-0.13,0.9-0.43,1.2c-0.53,0.53-1.14,0.98-2.08,1.77c1.48,0.26,2.31,0.33,2.96-0.54c0.84-1.14,1.53-0.52,2.3,0.18
		c0.39,0.36,0.03,1.14,0.28,1.16c0.36-0.32,0.67-0.59,0.96-0.84c0.25-0.29,0.52-0.6,0.84-0.96c-0.02-0.25-0.81,0.11-1.16-0.28
		c-0.7-0.77-1.32-1.46-0.18-2.3c0.88-0.64,0.81-1.47,0.54-2.96C12.57,17.6,12.12,18.22,11.59,18.74z"/>
	<g>
		<path class="st0" d="M11.37,4.85c-0.24-0.42-0.17-0.89-0.03-1.31c-1.85-0.83-3.62-0.83-5.4,0C6.1,3.88,6.13,4.2,6.05,4.5
			C5.94,4.9,5.64,5.22,5.14,5.47c0.45,2.03,1.5,3.57,3.2,4.72c0.1,0.07,0.45,0.08,0.56,0.02c1.72-1.15,2.79-2.71,3.24-4.77
			C11.78,5.32,11.52,5.12,11.37,4.85z"/>
		<path class="st0" d="M13.9,1.38C10.28-0.47,6.78-0.48,3.25,1.47C4.42,2.94,3.67,3.81,2.2,4.35c0.66,3.71,2.5,6.56,5.52,8.59
			c0.42,0.28,1.35,0.31,1.76,0.04c3.08-2.05,4.95-4.92,5.61-8.79C12.9,3.85,13.46,2.51,13.9,1.38z M13.21,5.15
			c-0.44,2.58-1.67,4.5-3.77,5.9c-0.2,0.14-0.5,0.2-0.8,0.2c-0.32,0-0.65-0.08-0.87-0.23c-2.02-1.36-3.27-3.3-3.7-5.76L4,4.85
			L4.39,4.7c0.58-0.21,0.67-0.41,0.69-0.47C5.12,4.11,5.03,3.9,4.84,3.66L4.47,3.2l0.52-0.29C7.36,1.6,9.72,1.58,12.2,2.85l0.4,0.21
			l-0.16,0.42c-0.12,0.31-0.29,0.73-0.2,0.88c0.04,0.07,0.21,0.17,0.56,0.22l0.5,0.08L13.21,5.15z"/>
	</g>
	<path class="st0" d="M23.97,13.83c-0.13-1.6-0.82-2.01-2.31-1.48c-0.39,0.14-0.8,0.2-1.21,0.3c-1.38,0.33-1.76-0.04-1.45-1.39
		c0.07-0.3,0.12-0.61,0.23-0.9c0.45-1.11,0.49-1.96-0.94-2.4c-0.36-0.11-0.8-0.16-1.26-0.15c-0.46,0-0.9,0.05-1.26,0.15
		c-1.43,0.44-1.4,1.29-0.94,2.4c0.12,0.28,0.16,0.6,0.23,0.9c0.31,1.36-0.07,1.73-1.45,1.39c-0.4-0.1-0.82-0.16-1.21-0.3
		c-1.49-0.54-2.17-0.13-2.31,1.48c-0.05,0.57-0.05,1.17,0.08,1.72c0.35,1.47,0.82,1.67,2.21,1.05c0.78-0.35,1.66-0.68,2.39-0.13
		c0.76,0.57,0.32,1.43,0.18,2.19c-0.11,0.6-0.4,1.25,0.02,1.82c0.32,0.44,1.16,0.66,2.06,0.66c0.89,0,1.73-0.22,2.06-0.66
		c0.42-0.58,0.13-1.22,0.02-1.82c-0.14-0.76-0.58-1.62,0.18-2.19c0.74-0.55,1.61-0.22,2.39,0.13c1.39,0.62,1.86,0.42,2.21-1.05
		C24.02,15,24.02,14.4,23.97,13.83z M20.4,14.54v0.27c0,0.19-0.19,0.52-0.38,0.52c0,0-0.23-0.04-0.46-0.09
		c-0.32-0.06-0.65-0.09-0.97-0.09h-0.66c-0.02,0-0.14,0-0.24,0.1c-0.02,0.02-0.03,0.04-0.05,0.07v0.66c0,0.33,0.03,0.65,0.09,0.97
		c0.04,0.23,0.09,0.46,0.09,0.46c0,0.19-0.33,0.38-0.52,0.38h-0.27h-0.27c-0.19,0-0.52-0.19-0.52-0.38c0,0,0.04-0.23,0.09-0.46
		c0.06-0.32,0.09-0.65,0.09-0.97v-0.66c0-0.02-0.01-0.11-0.07-0.2c-0.09-0.06-0.17-0.06-0.19-0.06H15.5c-0.33,0-0.65,0.03-0.97,0.09
		c-0.23,0.04-0.46,0.09-0.46,0.09c-0.19,0-0.38-0.33-0.38-0.52v-0.27v-0.27c0-0.19,0.19-0.52,0.38-0.52c0,0,0.23,0.04,0.46,0.09
		c0.32,0.06,0.65,0.09,0.97,0.09h0.66c0.02,0,0.13,0,0.23-0.09c0.02-0.06,0.03-0.11,0.03-0.13v-0.66c0-0.33-0.03-0.65-0.09-0.97
		c-0.04-0.23-0.09-0.46-0.09-0.46c0-0.19,0.33-0.38,0.52-0.38h0.27h0.27c0.19,0,0.52,0.19,0.52,0.38c0,0-0.04,0.23-0.09,0.46
		c-0.06,0.32-0.09,0.65-0.09,0.97v0.66c0,0.02,0,0.14,0.1,0.24c0.01,0.01,0.03,0.02,0.05,0.03c0.06,0.03,0.12,0.03,0.14,0.03h0.66
		c0.33,0,0.65-0.03,0.97-0.09c0.23-0.04,0.46-0.09,0.46-0.09c0.19,0,0.38,0.33,0.38,0.52V14.54z"/>
</g>
</svg>
