<?xml version="1.0" encoding="utf-8"?>
<!-- Generator: Adobe Illustrator 27.0.0, SVG Export Plug-In . SVG Version: 6.00 Build 0)  -->
<svg version="1.1" id="레이어_1" xmlns="http://www.w3.org/2000/svg" xmlns:xlink="http://www.w3.org/1999/xlink" x="0px"
	 y="0px" viewBox="0 0 500 500" style="enable-background:new 0 0 500 500;" xml:space="preserve">
<style type="text/css">
	.st0{fill:#5C779E;}
</style>
<g>
	<path class="st0" d="M253.68,500c-12.91,0-26.38-0.55-40.06-1.64c-27.43-2.18-48.83-7.37-67.33-16.32
		c-19.85-9.61-39-28.71-33.25-53.51c0.96-4.13,4.43-6.91,8.63-6.91c2.94,0,5.78,1.35,7.58,3.62c1.75,2.2,2.35,4.96,1.69,7.78
		c-4.73,20.38,21.03,32.53,36.81,37.96c16.32,5.62,34.66,8.62,59.46,9.73c10.96,0.49,20.1,0.72,28.78,0.72
		c12.02,0,22.81-0.45,32.98-1.39c23.62-2.18,42.25-7.22,56.94-15.41c13.29-7.4,27.22-22.16,22.77-39.37
		c-0.72-2.78-0.16-5.64,1.54-7.83c1.78-2.3,4.63-3.68,7.62-3.68c4.21,0,7.62,2.65,8.68,6.76c6.91,26.71-12.06,50.11-33.92,61.46
		c-17.84,9.26-39.8,14.77-67.11,16.84C275.28,499.61,264.57,500,253.68,500z"/>
	<g>
		<path class="st0" d="M206.48,430.23c-1.86,0-3.68-0.64-5.27-1.85c-19.85-15.05-42.18-25.44-66.37-30.87
			c-4.57-1.03-7.41-5-6.89-9.66c0.54-4.84,4.49-8.49,9.19-8.49c0.7,0,1.42,0.08,2.12,0.24c26.09,5.86,51.09,17.46,72.31,33.55
			c3.31,2.51,4.58,6.72,3.24,10.72C213.52,427.67,210.17,430.23,206.48,430.23C206.48,430.23,206.48,430.23,206.48,430.23z"/>
		<path class="st0" d="M293.52,431.03c-3.7,0-7.04-2.56-8.32-6.37c-1.35-4-0.07-8.21,3.24-10.72
			c21.22-16.08,46.22-27.69,72.31-33.55c0.71-0.16,1.42-0.24,2.13-0.24c4.7,0,8.64,3.65,9.18,8.48c0.52,4.67-2.32,8.64-6.89,9.67
			c-24.19,5.44-46.52,15.82-66.37,30.87C297.2,430.39,295.38,431.03,293.52,431.03L293.52,431.03z"/>
	</g>
	<g>
		<path class="st0" d="M250,475.35c-10.81,0-19.61-10.41-19.61-23.21s8.8-23.21,19.61-23.21s19.61,10.41,19.61,23.21
			S260.81,475.35,250,475.35z"/>
	</g>
	<g>
		<path class="st0" d="M386.44,421.98c-4.81,0-8.81-3.73-9.3-8.67c-0.46-4.67,2.43-8.57,7.04-9.49l23.24-4.65
			c0.64-0.13,1.28-0.19,1.91-0.19c4.81,0,8.81,3.73,9.3,8.67c0.46,4.67-2.43,8.57-7.04,9.49l-23.25,4.65
			C387.72,421.91,387.08,421.98,386.44,421.98L386.44,421.98z"/>
		<path class="st0" d="M415.43,443.27c-0.37,0-0.75-0.02-1.15-0.07l-18.02-2.14c-5.1-0.6-8.71-5-8.41-10.24
			c0.28-4.76,3.85-8.21,8.49-8.21c0.37,0,0.75,0.02,1.15,0.07l18.02,2.13c5.1,0.6,8.72,5.01,8.41,10.24
			C423.63,439.82,420.06,443.27,415.43,443.27C415.43,443.27,415.43,443.27,415.43,443.27z"/>
		<path class="st0" d="M113.55,426.77c-0.63,0-1.27-0.06-1.91-0.19l-23.24-4.65c-4.61-0.92-7.5-4.82-7.04-9.48
			c0.49-4.95,4.49-8.67,9.3-8.67c0.63,0,1.28,0.06,1.91,0.19l23.24,4.65c4.61,0.92,7.5,4.82,7.04,9.49
			C122.37,423.04,118.37,426.77,113.55,426.77C113.55,426.77,113.55,426.77,113.55,426.77z"/>
		<path class="st0" d="M84.57,448.07c-4.64,0-8.2-3.45-8.48-8.21c-0.31-5.24,3.31-9.64,8.41-10.24l18.02-2.13
			c0.4-0.05,0.78-0.07,1.15-0.07c4.64,0,8.2,3.45,8.48,8.21c0.31,5.24-3.3,9.64-8.41,10.24L85.72,448
			C85.32,448.04,84.94,448.07,84.57,448.07C84.57,448.07,84.57,448.07,84.57,448.07z"/>
	</g>
	<g>
		<path class="st0" d="M377.42,411.01c-3.19,0-6.11-1.47-7.8-3.93c-1.59-2.31-1.88-5.22-0.82-7.99c4.38-11.39,7.18-23.06,8.31-34.69
			c4.22-43.25-11.43-86.4-41.85-115.44c-1.43-1.36-2.35-3.02-2.69-4.84c-0.39-1.07-0.59-2.16-0.61-3.24
			c-0.25-3.14,1.06-6.06,3.58-7.98c0.86-0.94,1.78-1.82,2.77-2.61c0.52-0.81,1.19-1.55,2-2.19l20.65-16.51
			c1.76-1.4,3.94-2.18,6.16-2.18c5.07,0,9.01,3.84,9.16,8.94c0.23,7.96-0.95,16.52-3.6,26.17c-1.35,4.92-2.59,8.92-3.88,12.57
			c-0.21,0.58-0.46,1.25-0.79,1.96c0.35,0.5,0.7,1.01,1.04,1.51c8.32-18.96,14.13-38.81,17.32-59.2
			c-21.27,4.06-41.7,11.61-60.82,22.5c-1.45,0.82-2.98,1.24-4.57,1.24c-4.14,0-7.81-2.93-8.92-7.11c-1.07-4.06,0.61-8.03,4.28-10.12
			c24.62-14.02,51.57-23,80.09-26.71c0.33-0.04,0.66-0.06,0.99-0.06c2.4,0,4.79,1.12,6.55,3.08c1.73,1.93,2.58,4.38,2.33,6.72
			c-3.33,31.27-12.1,61.27-26.07,89.21c18.82,39.23,21.11,85.7,6.05,124.85C384.84,408.69,381.45,411.01,377.42,411.01
			C377.42,411.01,377.42,411.01,377.42,411.01z"/>
		<path class="st0" d="M122.58,415c-4.03,0-7.42-2.32-8.86-6.05c-15.06-39.15-12.77-85.62,6.05-124.85
			c-13.98-27.94-22.75-57.95-26.07-89.22c-0.25-2.34,0.6-4.79,2.33-6.72c1.76-1.96,4.15-3.08,6.55-3.08c0.33,0,0.66,0.02,0.99,0.06
			c28.52,3.7,55.46,12.69,80.09,26.71c3.67,2.09,5.35,6.06,4.28,10.12c-1.11,4.19-4.78,7.11-8.92,7.12c-1.58,0-3.12-0.42-4.57-1.24
			c-19.13-10.89-39.56-18.44-60.82-22.5c3.19,20.39,9,40.24,17.32,59.2c0.34-0.51,0.69-1.01,1.04-1.51
			c-0.33-0.71-0.59-1.38-0.79-1.96c-1.29-3.64-2.52-7.64-3.88-12.57c-2.65-9.65-3.83-18.21-3.6-26.17c0.15-5.1,4.08-8.94,9.16-8.94
			c2.22,0,4.4,0.77,6.16,2.18l20.65,16.51c0.81,0.65,1.48,1.38,2,2.19c0.99,0.8,1.92,1.68,2.78,2.63c2.52,1.95,3.81,4.84,3.56,7.96
			c-0.01,1.09-0.22,2.17-0.61,3.25c-0.34,1.82-1.26,3.47-2.69,4.84c-30.42,29.03-46.07,72.19-41.85,115.44
			c1.13,11.63,3.93,23.3,8.31,34.69c1.07,2.77,0.77,5.68-0.82,7.99C128.69,413.53,125.77,415,122.58,415z"/>
	</g>
	<path class="st0" d="M195.1,228.16c-4.73,0-8.68-3.67-9.21-8.53c-0.5-4.67,2.34-8.62,6.93-9.63c19.85-4.34,40.23-6.54,60.56-6.54
		c17.95,0,36.01,1.72,53.67,5.11c4.62,0.89,7.53,4.76,7.08,9.43c-0.47,4.98-4.49,8.73-9.34,8.73c-0.61,0-1.23-0.06-1.84-0.18
		c-16.24-3.12-32.89-4.7-49.49-4.7c-18.91,0-37.84,2.04-56.28,6.08C196.48,228.08,195.78,228.16,195.1,228.16L195.1,228.16z"/>
	<path class="st0" d="M250,209.54c-5.08,0-9.21-4.13-9.21-9.21v-19.86c0-5.08,4.13-9.21,9.21-9.21c5.08,0,9.21,4.13,9.21,9.21v19.86
		C259.21,205.41,255.08,209.54,250,209.54z"/>
	<path class="st0" d="M250,0c-47.43,0-85.88,38.45-85.88,85.88c0,47.43,38.45,85.88,85.88,85.88s85.88-38.45,85.88-85.88
		C335.88,38.45,297.43,0,250,0z M250,67.93c-10.24,0-18.54-8.3-18.54-18.54s8.3-18.54,18.54-18.54c10.24,0,18.54,8.3,18.54,18.54
		S260.24,67.93,250,67.93z"/>
</g>
</svg>
