<?xml version="1.0" encoding="utf-8"?>
<!-- Generator: Adobe Illustrator 27.0.0, SVG Export Plug-In . SVG Version: 6.00 Build 0)  -->
<svg version="1.1" id="레이어_1" xmlns="http://www.w3.org/2000/svg" xmlns:xlink="http://www.w3.org/1999/xlink" x="0px"
	 y="0px" viewBox="0 0 24 24" style="enable-background:new 0 0 24 24;" xml:space="preserve">
<style type="text/css">
	.st0{fill:#BB86FC;}
</style>
<path class="st0" d="M7.9,14l1.9,1.9l-1.9,1.9L6,15.9L7.9,14z M2.6,14.7c0-0.4,0-0.8,0.1-1.1c-1.5,0-2.7,1.3-2.7,2.8v2.5
	c0,1.5,1.2,2.8,2.8,2.8H3c-0.3-0.6-0.4-1.4-0.4-2.1V14.7z M21.3,13.6c0.1,0.4,0.1,0.8,0.1,1.1v4.8c0,0.7-0.1,1.5-0.4,2.1h0.2
	c1.5,0,2.8-1.2,2.8-2.8v-2.5C24,14.9,22.8,13.7,21.3,13.6z M20.5,14.7v4.7c0,2.5-2.1,4.6-4.6,4.6H8.1c-2.5,0-4.6-2.1-4.6-4.6v-4.7
	c0-2.5,2.1-4.6,4.6-4.6h7.8C18.5,10.1,20.5,12.2,20.5,14.7z M9.6,20.7H7.4v1.1h2.3V20.7z M10.2,15.9c0-1.3-1-2.3-2.3-2.3
	s-2.3,1-2.3,2.3s1,2.3,2.3,2.3S10.2,17.2,10.2,15.9z M13.2,20.7h-2.4v1.1h2.4V20.7z M16.6,20.7h-2.3v1.1h2.3V20.7z M18.4,15.9
	c0-1.3-1-2.3-2.3-2.3s-2.3,1-2.3,2.3s1,2.3,2.3,2.3S18.4,17.2,18.4,15.9z M14.2,15.9l1.9,1.9l1.9-1.9L16.1,14L14.2,15.9z M24,3v2.3
	c0,1.7-1.3,3-3,3h-8c0,0.1,0,0.2,0,0.2l-0.5,1.1c-0.1,0.2-0.3,0.3-0.4,0.3s-0.4-0.1-0.4-0.3L11,8.5c0-0.1,0-0.1,0-0.2H3
	c-1.7,0-3-1.3-3-3V3c0-1.7,1.3-3,3-3h18C22.7,0,24,1.3,24,3z M8.2,2.1H4v4.2h4.2V2.1z M14.4,4.2c0-1.2-1-2.1-2.1-2.1
	c-1.2,0-2.1,1-2.1,2.1c0,1.2,1,2.1,2.1,2.1C13.4,6.4,14.4,5.4,14.4,4.2z M18.8,4.2L20,3l-0.9-0.9l-1.2,1.2l-1.2-1.2L15.8,3L17,4.2
	l-1.2,1.2l0.9,0.9l1.2-1.2l1.2,1.2L20,5.5L18.8,4.2z"/>
</svg>
