<?xml version="1.0" encoding="utf-8"?>
<!-- Generator: Adobe Illustrator 27.0.0, SVG Export Plug-In . SVG Version: 6.00 Build 0)  -->
<svg version="1.1" id="레이어_1" xmlns="http://www.w3.org/2000/svg" xmlns:xlink="http://www.w3.org/1999/xlink" x="0px"
	 y="0px" viewBox="0 0 24 24" style="enable-background:new 0 0 24 24;" xml:space="preserve">
<style type="text/css">
	.st0{fill:#231815;}
</style>
<path class="st0" d="M2.56,19.5c0,0.74,0.15,1.45,0.42,2.1h-0.2C1.24,21.6,0,20.36,0,18.83v-2.47c0-1.5,1.19-2.71,2.68-2.76
	c-0.08,0.37-0.12,0.75-0.12,1.15V19.5z M21.32,13.6c0.08,0.37,0.12,0.75,0.12,1.15v4.75c0,0.74-0.15,1.45-0.42,2.1h0.2
	c1.53,0,2.77-1.24,2.77-2.77v-2.47C24,14.86,22.81,13.65,21.32,13.6z M20.52,14.75v4.75c0,2.55-2.07,4.61-4.61,4.61H8.1
	c-2.55,0-4.61-2.07-4.61-4.61v-4.75c0-2.55,2.07-4.61,4.61-4.61h7.81C18.45,10.13,20.52,12.2,20.52,14.75z M9.65,20.71H7.38v1.11
	h2.27V20.71z M10.21,15.92c0-1.28-1.04-2.33-2.33-2.33s-2.33,1.04-2.33,2.33s1.04,2.33,2.33,2.33S10.21,17.2,10.21,15.92z
	 M13.22,20.71h-2.44v1.11h2.44V20.71z M16.62,20.71h-2.27v1.11h2.27V20.71z M18.44,15.92c0-1.28-1.04-2.33-2.33-2.33
	s-2.33,1.04-2.33,2.33s1.04,2.33,2.33,2.33S18.44,17.2,18.44,15.92z M5.72,15.9l2.16,2.16l2.16-2.16l-2.16-2.16L5.72,15.9z
	 M13.95,15.9l2.16,2.16l2.16-2.16l-2.16-2.16L13.95,15.9z M21,0H3C1.34,0,0,1.34,0,3v2.29c0,1.66,1.34,3,3,3h7.96
	c0,0.08,0.01,0.15,0.05,0.22l0.55,1.11C11.64,9.8,11.81,9.9,12,9.9s0.36-0.11,0.45-0.28L13,8.51c0.03-0.07,0.05-0.15,0.05-0.22H21
	c1.66,0,3-1.34,3-3V3C24,1.34,22.66,0,21,0z M8,6.03H4v-4h4V6.03z M10.08,6.09c0.73-1.35,1.46-2.69,2.19-4.04
	c0.73,1.35,1.46,2.69,2.19,4.04H10.08z M18.92,6.15l-0.89-1.43l-0.91,1.43h-1.05l1.37-2.09l-1.32-2.05h1.1l0.83,1.35l0.86-1.35h1.05
	l-1.33,2.02L20,6.15H18.92z"/>
</svg>
