<?xml version="1.0" encoding="utf-8"?>
<!-- Generator: Adobe Illustrator 27.0.0, SVG Export Plug-In . SVG Version: 6.00 Build 0)  -->
<svg version="1.1" id="레이어_1" xmlns="http://www.w3.org/2000/svg" xmlns:xlink="http://www.w3.org/1999/xlink" x="0px"
	 y="0px" viewBox="0 0 24 24" style="enable-background:new 0 0 24 24;" xml:space="preserve">
<style type="text/css">
	.st0{fill:#FFFFFF;}
</style>
<path class="st0" d="M14.5,9.5c-0.6-0.7-1.2-1.5-1.9-2.2l5.7-5.3L24,0l-1.9,5.6l-5.6,6c-0.2-0.3-0.5-0.5-0.7-0.8l5.4-5.8l1.2-3.4
	L14.5,9.5z M12.1,16.3l-3,3.2l0.7,0.7c0.2,0,0.4,0.1,0.5,0.3c0.4,0.4,0.4,1,0,1.4c-0.4,0.4-1,0.4-1.4,0c-0.1-0.1-0.2-0.4-0.3-0.5
	l-1.7-1.7L3.5,23c0.1,0.3,0,0.6-0.1,0.7C2.9,24.2,1.9,23.9,1,23c-0.9-0.9-1.2-1.9-0.8-2.3c0.2-0.2,0.4-0.2,0.7-0.1l3.5-3.5l-1.7-1.7
	c-0.2,0-0.4-0.1-0.5-0.3c-0.4-0.4-0.4-1,0-1.4c0.4-0.4,1-0.4,1.4,0c0.2,0.1,0.2,0.4,0.3,0.5l0.7,0.7l4-3.7c0.6,0.9,1.1,1.8,1.8,2.6
	l-3.4,3.4l1.5,1.6l3.1-3.3C11.7,15.7,11.9,16,12.1,16.3z M2.1,21.9c-0.4-0.4-0.8-0.6-1-0.5s0.1,0.6,0.5,1c0.4,0.4,0.8,0.6,1,0.5
	S2.5,22.3,2.1,21.9z M23.8,20.6c0.4,0.4,0.1,1.5-0.8,2.4c-0.9,0.9-2,1.2-2.4,0.8c-0.2-0.2-0.2-0.4-0.1-0.8l-3.6-3.6l-1.8,1.8
	c0,0.2-0.1,0.4-0.3,0.6c-0.4,0.4-1.1,0.4-1.5,0c-0.4-0.4-0.4-1.1,0-1.5c0.2-0.2,0.4-0.2,0.6-0.3l1.2-1.2c-3.4-4.2-6.5-8.7-9.2-13.7
	C5.6,3.5,5.2,1.7,4.9,0c1.2,1.1,2.4,2.1,3.7,3.1c3,4.4,6.4,8.4,10.2,12.1l1.2-1.2c0-0.2,0.1-0.4,0.3-0.6c0.4-0.4,1.1-0.4,1.5,0
	c0.4,0.4,0.4,1.1,0,1.5c-0.2,0.2-0.4,0.2-0.6,0.3l-1.8,1.8l3.6,3.6C23.4,20.4,23.6,20.5,23.8,20.6z M17,17C12.8,12.5,9,7.4,5.9,1.8
	c0.2,1,0.4,2.1,0.7,3.1c2.7,4.8,5.8,9.2,9.2,13.3L17,17z M19.4,18.3h-1v1h1V18.3z M20.7,19.6h-1v1h1V19.6z M22,22v-1h-1v1H22z"/>
<polygon class="st0" points="2.9,9.1 2,7.2 0,6.3 2.1,5.6 2.9,3.5 3.6,5.6 5.7,6.3 3.6,7 "/>
</svg>
