<?xml version="1.0" encoding="utf-8"?>
<!-- Generator: Adobe Illustrator 27.0.0, SVG Export Plug-In . SVG Version: 6.00 Build 0)  -->
<svg version="1.1" id="레이어_1" xmlns="http://www.w3.org/2000/svg" xmlns:xlink="http://www.w3.org/1999/xlink" x="0px"
	 y="0px" viewBox="0 0 32 32" style="enable-background:new 0 0 32 32;" xml:space="preserve">
<style type="text/css">
	.st0{fill:#FFFFFF;}
	.st1{fill:#121212;}
	.st2{fill:#F9A0BD;}
	.st3{fill:#EDB964;}
</style>
<g>
	<g>
		<g>
			<g>
				<path class="st0" d="M26.33,26.69l-1.49,0.3c-0.03,0.01-0.05,0.01-0.08,0.01c0,0,0,0,0,0c-0.08,0-0.16-0.03-0.22-0.07
					c0.02,0.1,0.03,0.21,0.04,0.31c0.36,1.57-0.78,2.95-2.09,3.63c-1.12,0.58-2.5,0.93-4.23,1.06C17.61,31.98,16.93,32,16.24,32
					c-0.82,0-1.68-0.04-2.55-0.1c-1.73-0.14-3.08-0.46-4.25-1.03c-1.2-0.58-2.36-1.73-2.02-3.2c0-0.02,0.01-0.04,0.02-0.06
					c0-0.06,0.01-0.13,0.02-0.2c0.01-0.07,0.02-0.13,0.03-0.2c-0.06,0.05-0.14,0.08-0.24,0.08c0,0,0,0,0,0c-0.03,0-0.05,0-0.08-0.01
					L5.67,27c-0.19-0.04-0.3-0.19-0.29-0.38c0.02-0.18,0.16-0.37,0.39-0.37c0.03,0,0.05,0,0.08,0.01l1.49,0.3
					c0.06,0.01,0.1,0.03,0.15,0.06c-0.01-0.1-0.02-0.19-0.03-0.29c-0.01-0.01-0.01-0.02-0.02-0.03c-0.96-2.49-0.8-5.45,0.43-7.94
					c-0.91-1.8-1.48-3.73-1.7-5.74c-0.01-0.09,0.03-0.19,0.1-0.27c0.07-0.08,0.17-0.13,0.27-0.13c0.01,0,0.02,0,0.04,0
					c1.77,0.23,3.45,0.78,4.98,1.64c0.08,0.02,0.15,0.04,0.23,0.06c0.09-0.03,0.18-0.04,0.27-0.06c0.04-0.01,0.07-0.01,0.1-0.02
					c0.1-0.02,0.2-0.03,0.29-0.04c1.23-0.26,2.5-0.4,3.76-0.4c1.04,0,2.09,0.09,3.12,0.27c0.04,0,0.09,0,0.13,0.01
					c0.11,0.02,0.23,0.04,0.34,0.06c0.03,0,0.06,0.01,0.1,0.01c0.04,0,0.08,0,0.13,0.01c0.15-0.07,0.29-0.13,0.44-0.17
					c1.52-0.85,3.19-1.39,4.94-1.62c0.01,0,0.02,0,0.04,0c0.1,0,0.19,0.05,0.27,0.13c0.07,0.08,0.11,0.18,0.1,0.27
					c-0.21,2.02-0.79,3.95-1.7,5.74c1.22,2.49,1.38,5.45,0.43,7.94c-0.01,0.02-0.02,0.04-0.03,0.06c0,0,0,0,0,0.01
					c-0.01,0.07-0.01,0.14-0.02,0.21c0.04-0.03,0.09-0.06,0.15-0.07l1.49-0.3c0.03-0.01,0.06-0.01,0.08-0.01
					c0.23,0,0.37,0.19,0.39,0.37C26.63,26.5,26.52,26.65,26.33,26.69z M26.59,27.59l-1.16-0.14c-0.02,0-0.03,0-0.05,0
					c-0.19,0-0.33,0.14-0.34,0.33c-0.01,0.19,0.11,0.41,0.36,0.44l1.16,0.14c0.02,0,0.03,0,0.05,0c0.19,0,0.33-0.14,0.34-0.33
					C26.96,27.84,26.84,27.62,26.59,27.59z M6.61,27.76c-0.02,0-0.03,0-0.05,0L5.41,27.9c-0.25,0.03-0.37,0.25-0.36,0.44
					c0.01,0.19,0.15,0.33,0.34,0.33c0,0,0,0,0,0c0.02,0,0.03,0,0.05,0l1.16-0.14c0.25-0.03,0.37-0.25,0.36-0.44
					C6.94,27.9,6.8,27.76,6.61,27.76z M15.62,11.71v1.27c0,0.21,0.17,0.38,0.38,0.38s0.38-0.17,0.38-0.38v-1.27
					c0-0.21-0.17-0.38-0.38-0.38S15.62,11.5,15.62,11.71z M16,11.27c3.11,0,5.64-2.53,5.64-5.64S19.11,0,16,0s-5.64,2.53-5.64,5.64
					S12.89,11.27,16,11.27z"/>
				<path class="st1" d="M13.41,26.8c-1.34-1.01-2.91-1.75-4.56-2.12c-0.03-0.01-0.06-0.01-0.09-0.01c-0.22,0-0.36,0.19-0.38,0.36
					c-0.02,0.19,0.09,0.35,0.28,0.39c1.58,0.36,3.04,1.03,4.34,2.02c0.07,0.05,0.14,0.08,0.21,0.08c0,0,0,0,0,0
					c0.15,0,0.28-0.11,0.34-0.27C13.6,27.09,13.55,26.91,13.41,26.8z"/>
				<path class="st1" d="M23.62,25.09c-0.02-0.17-0.16-0.36-0.38-0.36c-0.03,0-0.06,0-0.09,0.01c-1.64,0.37-3.22,1.1-4.56,2.12
					c-0.14,0.11-0.19,0.28-0.14,0.46c0.05,0.16,0.19,0.27,0.34,0.27c0,0,0,0,0,0c0.07,0,0.15-0.03,0.21-0.08
					c1.3-0.98,2.76-1.66,4.34-2.02C23.53,25.44,23.65,25.28,23.62,25.09z"/>
				<ellipse class="st2" cx="16" cy="29.16" rx="1.08" ry="1.32"/>
				<path class="st2" d="M10.35,15.15c-0.2-0.28-1.65-1.39-1.94-1.63c-0.09-0.07-0.2-0.11-0.32-0.11c-1.05,0.04-0.06,2.98,0.24,3.59
					c0.73,0.76,1.4-0.88,2.07-1.17C10.6,15.62,10.59,15.31,10.35,15.15z"/>
				<path class="st2" d="M21.65,15.09c0.2-0.28,1.65-1.39,1.94-1.63c0.09-0.07,0.2-0.11,0.32-0.11c1.05,0.04,0.06,2.98-0.24,3.59
					c-0.73,0.76-1.4-0.88-2.07-1.17C21.4,15.57,21.41,15.26,21.65,15.09z"/>
				<path class="st3" d="M16,0.92c-2.85,0-5.16,2.31-5.16,5.16s2.31,5.16,5.16,5.16s5.16-2.31,5.16-5.16S18.85,0.92,16,0.92z
					 M16,5.1c-0.8,0-1.44-0.64-1.44-1.44S15.2,2.22,16,2.22c0.8,0,1.44,0.64,1.44,1.44S16.8,5.1,16,5.1z"/>
			</g>
		</g>
	</g>
</g>
</svg>
