<?xml version="1.0" encoding="utf-8"?>
<!-- Generator: Adobe Illustrator 27.0.0, SVG Export Plug-In . SVG Version: 6.00 Build 0)  -->
<svg version="1.1" id="레이어_1" xmlns="http://www.w3.org/2000/svg" xmlns:xlink="http://www.w3.org/1999/xlink" x="0px"
	 y="0px" viewBox="0 0 1000 562.5" style="enable-background:new 0 0 1000 562.5;" xml:space="preserve">
<style type="text/css">
	.st0{fill:#FFFFFF;}
	.st1{fill:#BB86FC;}
</style>
<g>
	<g>
		<path class="st0" d="M96.1,448.4c0.4,0,0.7,0.1,0.9,0.4c0.2,0.2,0.4,0.5,0.4,0.8v2.9c0,1.3-0.5,2.5-1.4,3.4s-2.1,1.4-3.4,1.4H66.9
			v20h25.3c0.4,0,0.7,0.1,0.9,0.4c0.2,0.2,0.4,0.5,0.4,0.8v2.9c0,1.3-0.5,2.4-1.4,3.3s-2,1.4-3.3,1.4H66.9v31.4h-8.7v-69L96.1,448.4
			L96.1,448.4z"/>
		<path class="st0" d="M141.7,448.4c0.4,0,0.7,0.1,0.9,0.4c0.2,0.2,0.4,0.5,0.4,0.8v2.9c0,1.3-0.5,2.5-1.4,3.4s-2.1,1.4-3.4,1.4
			h-25.8v20h25.3c0.4,0,0.7,0.1,0.9,0.4c0.2,0.2,0.4,0.5,0.4,0.8v2.9c0,1.3-0.5,2.4-1.4,3.3s-2,1.4-3.3,1.4h-21.9v31.4h-8.7v-69
			L141.7,448.4L141.7,448.4z"/>
		<path class="st0" d="M181.1,482.4l22.2,35h-10.5L176,490.7l-14.9,23.5c-0.6,1.1-1.5,1.9-2.5,2.4s-2.1,0.8-3.3,0.8h-4.5
			c-0.5,0-0.8-0.2-1-0.6c-0.2-0.4-0.2-0.8,0.1-1.2l20.9-33.2l-21.5-34h10.3l16.4,25.9l16.3-25.9h10.4L181.1,482.4z"/>
		<path class="st0" d="M209.6,516.2v-67.9h8.8v64.4c0,1.3-0.5,2.4-1.4,3.3c-0.9,0.9-2,1.3-3.4,1.3h-2.9c-0.4,0-0.7-0.1-0.9-0.4
			C209.7,516.8,209.6,516.5,209.6,516.2z"/>
		<path class="st0" d="M249.1,496.1l16.7-47.7h9.1l-22.3,65.9c-0.3,0.8-0.7,1.5-1.4,1.9s-1.4,0.6-2.1,0.6s-1.4-0.2-2.1-0.6
			c-0.7-0.4-1.1-1.1-1.4-1.9l-21-65.8h9.1L249.1,496.1z"/>
		<path class="st0" d="M343.4,481.3c2,2,3.5,4.2,4.6,6.8c1.1,2.6,1.6,5.3,1.6,8.1c0,2.8-0.5,5.5-1.6,8.1s-2.6,4.9-4.6,6.9
			c-2,2-4.3,3.5-6.9,4.6c-2.6,1.1-5.2,1.6-8.1,1.6h-17.3c-0.3,0-0.6-0.1-0.8-0.4s-0.4-0.5-0.4-0.8v-3c0-1.3,0.5-2.4,1.4-3.3
			c0.9-0.9,2-1.4,3.2-1.4h13.9v0.1c1.7,0,3.3-0.3,4.8-1c1.5-0.7,2.8-1.5,3.9-2.7c1.1-1.1,2-2.4,2.6-3.9c0.7-1.5,1-3.1,1-4.8
			s-0.3-3.3-1-4.8s-1.5-2.8-2.6-3.9c-1.1-1.1-2.4-2-3.9-2.7c-1.5-0.7-3.1-1-4.8-1h-4.9c-2.4,0-4.6-0.4-6.8-1.3s-4.1-2.2-5.8-3.9
			c-1.7-1.7-3-3.6-3.9-5.8c-0.9-2.1-1.3-4.5-1.3-6.9c0-2.3,0.4-4.6,1.3-6.7c0.9-2.1,2.2-4.1,3.9-5.8c3.5-3.5,7.7-5.2,12.6-5.2h19.6
			c0.4,0,0.7,0.1,0.9,0.4c0.2,0.2,0.4,0.5,0.4,0.8v2.9c0,1.3-0.5,2.5-1.4,3.4c-0.9,0.9-2.1,1.4-3.4,1.4h-16.1
			c-1.2,0-2.4,0.2-3.5,0.7c-1.1,0.5-2,1.1-2.9,1.9c-0.8,0.8-1.5,1.8-2,2.9s-0.7,2.3-0.7,3.4c0,1.3,0.2,2.5,0.7,3.5
			c0.5,1.1,1.1,2,2,2.8c0.8,0.8,1.8,1.4,2.9,1.9c1.1,0.5,2.2,0.7,3.5,0.7h4.9c2.8,0,5.5,0.5,8.1,1.6
			C339.1,477.7,341.4,479.3,343.4,481.3z"/>
		<path class="st0" d="M355.9,516.2v-67.9h8.8v64.4c0,1.3-0.5,2.4-1.4,3.3c-0.9,0.9-2,1.3-3.4,1.3h-2.9c-0.4,0-0.7-0.1-0.9-0.4
			C356,516.8,355.9,516.5,355.9,516.2z"/>
		<path class="st0" d="M425.7,448.4h8.3v64.4c0,1.3-0.5,2.4-1.4,3.3c-0.9,0.9-2.1,1.3-3.4,1.3h-2.8c-0.4,0-0.7-0.1-0.9-0.4
			c-0.2-0.2-0.4-0.5-0.4-0.8v-52.7l-19.8,25.9c-0.7,0.9-1.6,1.4-2.6,1.4s-1.9-0.5-2.6-1.4l-19.8-25.9v52.7c0,0.3-0.1,0.6-0.4,0.8
			c-0.3,0.2-0.5,0.4-0.8,0.4h-7.6v-69h8.3l0.5,0.6l22.4,29.4l22.4-29.4L425.7,448.4z"/>
		<path class="st0" d="M475.9,496.2v-47.9h8.8v47.4c0,2.9-0.6,5.7-1.7,8.3c-1.1,2.6-2.7,5-4.8,7c-2.1,2.1-4.4,3.7-7.1,4.8
			c-2.6,1.1-5.5,1.7-8.4,1.7s-5.8-0.6-8.4-1.7s-5-2.7-7.1-4.8c-2.1-2.1-3.7-4.4-4.8-7.1c-1.1-2.6-1.6-5.5-1.6-8.4v-47.2h8.8v48.3
			c0,0.9,0.2,1.9,0.5,2.9s0.8,2.1,1.4,3c0.5,1,1.2,1.8,2,2.5c0.8,0.7,1.6,1.4,2.5,1.8c2.4,1.3,4.7,1.9,7.1,1.8
			c2.4-0.1,4.5-0.7,6.4-1.8c1.9-1.1,3.4-2.6,4.6-4.5C475.2,500.6,475.8,498.5,475.9,496.2z"/>
		<path class="st0" d="M529.7,508.6c0.8,0,1.3,0.4,1.3,1.3v2.9c0,1.3-0.5,2.4-1.4,3.3c-0.9,0.9-2.1,1.3-3.4,1.3h-34.6v-67.9
			c0-0.3,0.1-0.6,0.3-0.8c0.2-0.2,0.5-0.4,0.9-0.4h2.9c1.3,0,2.5,0.4,3.4,1.3c0.9,0.9,1.4,2,1.4,3.3v55.6L529.7,508.6L529.7,508.6z"
			/>
		<path class="st0" d="M589.4,517.4H580l-6.2-18.9h-15.3c-0.4,0-0.7-0.1-0.9-0.4c-0.2-0.2-0.4-0.5-0.4-0.8v-2.9
			c0-1.3,0.5-2.5,1.4-3.4s2-1.4,3.3-1.4h9l-7.6-23.1L546,517.4h-9.2l23-69h2.7c1.8,0,3,0.4,3.7,1.1c0.7,0.8,1.3,1.7,1.7,2.9
			L589.4,517.4z"/>
		<path class="st0" d="M631.2,448.4c0.3,0,0.6,0.1,0.8,0.4c0.2,0.2,0.4,0.5,0.4,0.8v2.9c0,1.3-0.5,2.5-1.4,3.4
			c-0.9,0.9-2.1,1.4-3.4,1.4h-14.4v60.2h-8.8v-60.2h-19.2v-8.8L631.2,448.4L631.2,448.4z"/>
		<path class="st0" d="M638.7,516.2v-67.9h8.8v64.4c0,1.3-0.5,2.4-1.4,3.3s-2,1.3-3.4,1.3h-2.9c-0.4,0-0.7-0.1-0.9-0.4
			C638.8,516.8,638.7,516.5,638.7,516.2z"/>
		<path class="st0" d="M681.6,517.3H676c-2.9,0-5.8-0.6-8.5-1.8c-2.7-1.1-5-2.7-7-4.7c-2-2-3.6-4.3-4.7-6.9
			c-1.1-2.7-1.7-5.5-1.7-8.5v-25.3c0-3.1,0.6-6,1.7-8.6c1.1-2.5,2.6-4.9,4.7-6.9c2.1-2,4.4-3.6,7-4.7c2.6-1.1,5.4-1.7,8.5-1.7h5.6
			c3,0,5.9,0.6,8.5,1.7c2.6,1.1,4.9,2.7,6.9,4.7c2.1,2,3.7,4.3,4.8,6.9c1.1,2.7,1.7,5.5,1.7,8.6v25.3c0,3-0.6,5.9-1.7,8.5
			c-1.2,2.6-2.8,5-4.8,6.9c-2,2-4.3,3.5-6.9,4.7C687.4,516.7,684.5,517.3,681.6,517.3z M676,457c-1.9,0-3.6,0.3-5.1,1
			c-1.6,0.7-3,1.6-4.2,2.8s-2.2,2.6-2.9,4.2s-1,3.3-1,5.1v25.3c0,1.8,0.3,3.5,1,5.1c0.7,1.6,1.6,3,2.9,4.1s2.6,2.1,4.2,2.8
			c1.6,0.7,3.3,1,5.1,1h5.6c1.8,0,3.5-0.4,5.1-1c1.6-0.7,3-1.6,4.2-2.8c1.2-1.2,2.2-2.5,2.8-4.1c0.7-1.6,1-3.3,1-5.1v-25.3
			c0-1.8-0.3-3.5-1-5.1s-1.6-3-2.8-4.2c-1.2-1.2-2.6-2.2-4.2-2.8c-1.6-0.7-3.3-1-5.1-1H676z"/>
		<path class="st0" d="M751.4,501.9v-53.5h8.8v64.4c0,1.3-0.4,2.4-1.3,3.3s-1.9,1.4-3.1,1.4h-3.7c-1.1,0-1.8-0.4-2.3-1.3l-30.9-50.9
			v51c0,0.3-0.1,0.6-0.4,0.8c-0.3,0.2-0.5,0.4-0.8,0.4h-7.6v-69h8.8L751.4,501.9z"/>
		<path class="st0" d="M834.3,467.1c0,2.5-0.5,5-1.4,7.2s-2.3,4.3-4.1,6.2c-0.3,0.3-0.5,0.5-0.8,0.7c-0.3,0.2-0.6,0.4-0.8,0.6
			l1.3,1.2c1.9,1.9,3.3,4.1,4.3,6.5c1,2.4,1.5,5,1.5,7.8c0,2.6-0.5,5.2-1.5,7.6c-1,2.4-2.5,4.6-4.3,6.5c-1.8,1.8-3.7,3.1-5.9,4.1
			s-4.5,1.6-7,1.8H791v-67.9c0-0.3,0.1-0.6,0.3-0.8c0.2-0.2,0.5-0.4,0.8-0.4h23.4c2.5,0,5,0.5,7.2,1.4c2.3,0.9,4.3,2.3,6.1,4.1
			c1.8,1.8,3.1,3.9,4.1,6.1C833.9,462.2,834.3,464.6,834.3,467.1z M814.8,508.6c1.5,0,2.9-0.4,4.2-1c1.3-0.6,2.5-1.4,3.4-2.4
			c1-1,1.7-2.2,2.3-3.5s0.8-2.8,0.8-4.3c0-1.5-0.3-3-0.8-4.3c-0.6-1.4-1.3-2.5-2.3-3.5c-1-1-2.1-1.8-3.4-2.5c-1.3-0.6-2.7-1-4.2-1
			h-11.5c-0.3,0-0.6-0.1-0.8-0.4c-0.2-0.2-0.4-0.5-0.4-0.9v-2.9c0-1.3,0.5-2.4,1.4-3.3s2-1.4,3.4-1.4h9.2c1.3,0,2.6-0.4,3.7-0.9
			c1.2-0.6,2.2-1.3,3-2.2s1.5-1.9,2-3.1c0.5-1.2,0.8-2.4,0.8-3.8c0-1.3-0.3-2.6-0.8-3.9c-0.5-1.2-1.2-2.3-2.1-3.3
			c-0.9-0.9-2-1.6-3.2-2.1c-1.2-0.5-2.5-0.8-3.9-0.8v0.1h-15.7v51.4H814.8z"/>
		<path class="st0" d="M868.2,517.3h-5.6c-2.9,0-5.8-0.6-8.5-1.8c-2.7-1.1-5-2.7-7-4.7c-2-2-3.6-4.3-4.7-6.9
			c-1.1-2.7-1.7-5.5-1.7-8.5v-25.3c0-3.1,0.6-6,1.7-8.6c1.1-2.5,2.6-4.9,4.7-6.9c2.1-2,4.4-3.6,7-4.7c2.6-1.1,5.4-1.7,8.5-1.7h5.6
			c3,0,5.9,0.6,8.5,1.7c2.6,1.1,4.9,2.7,6.9,4.7c2.1,2,3.7,4.3,4.8,6.9c1.1,2.7,1.7,5.5,1.7,8.6v25.3c0,3-0.6,5.9-1.7,8.5
			c-1.2,2.6-2.8,5-4.8,6.9c-2,2-4.3,3.5-6.9,4.7C874,516.7,871.1,517.3,868.2,517.3z M862.6,457c-1.9,0-3.6,0.3-5.1,1
			c-1.6,0.7-3,1.6-4.2,2.8s-2.2,2.6-2.9,4.2s-1,3.3-1,5.1v25.3c0,1.8,0.3,3.5,1,5.1c0.7,1.6,1.6,3,2.9,4.1s2.6,2.1,4.2,2.8
			c1.6,0.7,3.3,1,5.1,1h5.6c1.8,0,3.5-0.4,5.1-1c1.6-0.7,3-1.6,4.2-2.8c1.2-1.2,2.2-2.5,2.8-4.1c0.7-1.6,1-3.3,1-5.1v-25.3
			c0-1.8-0.3-3.5-1-5.1s-1.6-3-2.8-4.2c-1.2-1.2-2.6-2.2-4.2-2.8c-1.6-0.7-3.3-1-5.1-1H862.6z"/>
		<path class="st0" d="M940.6,448.4c0.3,0,0.6,0.1,0.8,0.4c0.2,0.2,0.4,0.5,0.4,0.8v2.9c0,1.3-0.5,2.5-1.4,3.4
			c-0.9,0.9-2.1,1.4-3.4,1.4h-14.4v60.2h-8.8v-60.2h-19.2v-8.8L940.6,448.4L940.6,448.4z"/>
	</g>
	<g>
		<path class="st1" d="M400.4,369.5c-3.9,16.6,9.3,29.4,23,36c15.4,7.5,32.5,10.6,49.4,11.9c17.8,1.4,35.9,1.7,53.7,0.4
			c16.8-1.3,34.1-4.4,49.2-12.3c15.2-7.9,28.3-23.8,23.6-41.9c-1-3.8-6.8-2.2-5.8,1.6c3.8,14.7-7,27.5-19.1,34.2
			c-13.5,7.5-29.3,10.7-44.6,12.1c-15.6,1.4-31.5,1.2-47.2,0.5c-15.6-0.7-31.2-2.5-46-7.6c-13.8-4.7-34.5-15.3-30.4-33.3
			C407.1,367.3,401.3,365.7,400.4,369.5L400.4,369.5z"/>
		<g>
			<path class="st1" d="M413.9,341.3c18.8,4.2,36.3,12.4,51.6,24c3.1,2.4,6.1-2.9,3-5.2c-15.7-11.9-33.9-20.3-53.1-24.6
				C411.7,334.6,410.1,340.5,413.9,341.3L413.9,341.3z"/>
			<path class="st1" d="M584.5,336.1c-19.2,4.3-37.4,12.7-53.1,24.6c-3,2.3,0,7.6,3,5.2c15.3-11.6,32.9-19.8,51.7-24
				C589.9,341.1,588.3,335.2,584.5,336.1L584.5,336.1z"/>
		</g>
		<ellipse class="st1" cx="500" cy="386.4" rx="11.2" ry="13.9"/>
		<g>
			<path class="st1" d="M603.7,359.6c5.8-1.2,11.7-2.3,17.6-3.5c3.8-0.8,2.2-6.6-1.6-5.8c-5.8,1.2-11.7,2.3-17.6,3.5
				C598.3,354.6,599.9,360.4,603.7,359.6L603.7,359.6z"/>
			<path class="st1" d="M610.9,374.1c4.5,0.5,9.1,1.1,13.6,1.6c3.8,0.5,3.8-5.6,0-6c-4.5-0.5-9.1-1.1-13.6-1.6
				C607.1,367.7,607.1,373.7,610.9,374.1L610.9,374.1z"/>
			<path class="st1" d="M397.9,357.4c-5.9-1.2-11.7-2.3-17.6-3.5c-3.8-0.8-5.4,5.1-1.6,5.8c5.9,1.2,11.7,2.3,17.6,3.5
				C400.1,364,401.7,358.2,397.9,357.4L397.9,357.4z"/>
			<path class="st1" d="M389.1,371.7c-4.5,0.5-9.1,1.1-13.6,1.6c-3.8,0.5-3.9,6.5,0,6c4.5-0.5,9.1-1.1,13.6-1.6
				C392.9,377.3,392.9,371.3,389.1,371.7L389.1,371.7z"/>
		</g>
		<g>
			<path class="st1" d="M611.1,185.7c-20.8,2.7-40.8,9.3-59,19.7c-3.4,1.9-0.3,7.1,3,5.2c16.2-9.2,34.1-15.5,52.6-18.4
				c-2.5,20.1-8.4,39.6-17.2,57.8c-0.2-0.4-0.4-0.7-0.6-1c-1.7-2.9-3.5-5.6-5.5-8.3c0.8-0.7,1.3-1.7,1.7-2.9c1.1-3,2-6.1,2.8-9.2
				c1.7-6.1,2.8-12.3,2.6-18.6c-0.1-2.8-3.2-3.7-5.2-2.1c-5.2,4.2-10.4,8.3-15.6,12.5c-0.5,0.4-0.7,0.8-0.9,1.2
				c-0.9,0.7-1.8,1.4-2.5,2.3c0,0,0,0,0,0c-1.1,0.7-1.5,1.8-1.4,2.9c0,0.6,0.1,1.1,0.3,1.6c0,0.6,0.3,1.3,0.9,1.8
				c24.2,23.1,36,57.3,32.8,90.4c-0.9,9.3-3.2,18.5-6.5,27.2c-1.4,3.6,4.4,5.2,5.8,1.6c11.5-29.9,9-64.4-5.3-92.9
				c10.9-21.2,17.7-44.1,20.2-67.8C614.3,187.2,612.6,185.5,611.1,185.7z"/>
			<path class="st1" d="M388.9,188.7c20.8,2.7,40.8,9.3,59,19.7c3.4,1.9,0.3,7.1-3,5.2c-16.2-9.2-34.1-15.5-52.6-18.4
				c2.5,20.1,8.4,39.6,17.2,57.8c0.2-0.4,0.4-0.7,0.6-1c1.7-2.9,3.5-5.6,5.5-8.3c-0.8-0.7-1.3-1.7-1.7-2.9c-1.1-3-2-6.1-2.8-9.2
				c-1.7-6.1-2.8-12.3-2.6-18.6c0.1-2.8,3.2-3.7,5.1-2.1c5.2,4.2,10.4,8.3,15.6,12.5c0.5,0.4,0.7,0.8,0.9,1.2
				c0.9,0.7,1.8,1.4,2.5,2.3c0,0,0,0,0,0c1.1,0.7,1.5,1.8,1.4,2.9c0,0.6-0.1,1.1-0.4,1.6c0,0.6-0.3,1.3-0.9,1.8
				c-24.2,23.1-36,57.3-32.8,90.4c0.9,9.3,3.2,18.5,6.5,27.2c1.4,3.6-4.4,5.2-5.8,1.6c-11.5-29.9-9-64.4,5.3-92.9
				c-10.9-21.2-17.7-44.1-20.2-67.8C385.7,190.2,387.4,188.5,388.9,188.7z"/>
		</g>
		<path class="st1" d="M459.3,213.2c26.8-5.9,54.6-6.2,81.5-1.1c3.8,0.7,5.4-5.1,1.6-5.8c-28-5.4-56.8-5-84.7,1.1
			C453.9,208.2,455.5,214.1,459.3,213.2L459.3,213.2z"/>
		<path class="st1" d="M500,199.2c-1.7,0-3-1.3-3-3v-15c0-1.7,1.3-3,3-3s3,1.3,3,3v15C503,197.9,501.7,199.2,500,199.2z"/>
		<path class="st1" d="M500,44.9c-35.8,0-64.9,29-64.9,64.9s29,64.9,64.9,64.9s64.9-29,64.9-64.9S535.8,44.9,500,44.9z M500,96.2
			c-7.7,0-14-6.3-14-14s6.3-14,14-14s14,6.3,14,14S507.7,96.2,500,96.2z"/>
	</g>
</g>
</svg>
