<?xml version="1.0" encoding="utf-8"?>
<!-- Generator: Adobe Illustrator 23.0.1, SVG Export Plug-In . SVG Version: 6.00 Build 0)  -->
<svg version="1.1" id="레이어_1" xmlns="http://www.w3.org/2000/svg" xmlns:xlink="http://www.w3.org/1999/xlink" x="0px"
	 y="0px" viewBox="0 0 500 500" style="enable-background:new 0 0 500 500;" xml:space="preserve">
<style type="text/css">
	.st0{fill:#5C779E;}
</style>
<g>
	<path class="st0" d="M253.52,491.35c-12.33,0-25.21-0.53-38.27-1.56c-26.21-2.08-46.65-7.04-64.32-15.59
		c-18.96-9.18-37.26-27.43-31.76-51.12c0.92-3.95,4.23-6.6,8.24-6.6c2.81,0,5.52,1.29,7.24,3.46c1.67,2.1,2.24,4.74,1.62,7.43
		c-4.52,19.47,20.09,31.08,35.17,36.27c15.59,5.37,33.11,8.24,56.81,9.3c10.47,0.47,19.21,0.69,27.5,0.69
		c11.49,0,21.79-0.43,31.5-1.33c22.57-2.08,40.36-6.89,54.4-14.72c12.69-7.07,26.01-21.17,21.75-37.61
		c-0.69-2.66-0.15-5.39,1.47-7.48c1.7-2.2,4.42-3.51,7.28-3.51c4.02,0,7.28,2.54,8.3,6.46c6.6,25.52-11.52,47.88-32.41,58.72
		c-17.05,8.85-38.02,14.11-64.12,16.09C274.15,490.97,263.92,491.35,253.52,491.35z"/>
	<g>
		<path class="st0" d="M208.42,424.69c-1.77,0-3.52-0.61-5.04-1.76c-18.96-14.38-40.3-24.3-63.41-29.5
			c-4.37-0.98-7.08-4.78-6.58-9.23c0.51-4.62,4.29-8.11,8.78-8.11c0.67,0,1.35,0.08,2.03,0.23c24.92,5.6,48.81,16.68,69.08,32.05
			c3.16,2.4,4.38,6.42,3.09,10.24C215.15,422.24,211.95,424.69,208.42,424.69C208.42,424.69,208.42,424.69,208.42,424.69z"/>
		<path class="st0" d="M291.58,425.45c-3.53,0-6.72-2.44-7.95-6.08c-1.29-3.82-0.07-7.84,3.09-10.24
			c20.27-15.37,44.16-26.45,69.08-32.05c0.68-0.15,1.36-0.23,2.03-0.23c4.49,0,8.26,3.49,8.77,8.11c0.5,4.46-2.21,8.26-6.58,9.24
			c-23.11,5.19-44.44,15.12-63.41,29.5C295.1,424.84,293.35,425.45,291.58,425.45L291.58,425.45z"/>
	</g>
	<g>
		<path class="st0" d="M250,467.8c-10.33,0-18.74-9.95-18.74-22.17s8.41-22.17,18.74-22.17s18.74,9.95,18.74,22.17
			S260.33,467.8,250,467.8z"/>
	</g>
	<g>
		<path class="st0" d="M380.36,416.81c-4.6,0-8.42-3.56-8.88-8.28c-0.44-4.46,2.32-8.19,6.72-9.07l22.21-4.44
			c0.61-0.12,1.22-0.18,1.83-0.18c4.6,0,8.42,3.56,8.89,8.28c0.44,4.46-2.32,8.19-6.72,9.07l-22.21,4.44
			C381.58,416.75,380.96,416.81,380.36,416.81L380.36,416.81z"/>
		<path class="st0" d="M408.05,437.15c-0.35,0-0.72-0.02-1.1-0.07l-17.22-2.04c-4.87-0.58-8.33-4.78-8.03-9.78
			c0.27-4.55,3.68-7.85,8.11-7.85c0.35,0,0.72,0.02,1.1,0.07l17.22,2.04c4.88,0.58,8.33,4.78,8.03,9.78
			C415.89,433.85,412.48,437.15,408.05,437.15C408.05,437.15,408.05,437.15,408.05,437.15z"/>
		<path class="st0" d="M119.64,421.39c-0.6,0-1.22-0.06-1.83-0.18l-22.21-4.44c-4.4-0.88-7.17-4.61-6.73-9.06
			c0.47-4.72,4.29-8.29,8.89-8.29c0.6,0,1.22,0.06,1.83,0.18l22.21,4.44c4.4,0.88,7.17,4.61,6.73,9.06
			C128.06,417.82,124.24,421.39,119.64,421.39C119.64,421.39,119.64,421.39,119.64,421.39z"/>
		<path class="st0" d="M91.95,441.73c-4.43,0-7.84-3.3-8.11-7.84c-0.29-5,3.16-9.21,8.03-9.79l17.22-2.04
			c0.38-0.05,0.75-0.07,1.1-0.07c4.43,0,7.84,3.3,8.11,7.84c0.29,5-3.16,9.21-8.03,9.79l-17.22,2.04
			C92.67,441.71,92.3,441.73,91.95,441.73C91.95,441.73,91.95,441.73,91.95,441.73z"/>
	</g>
	<g>
		<path class="st0" d="M371.74,406.32c-3.05,0-5.83-1.41-7.45-3.76c-1.51-2.21-1.8-4.99-0.78-7.64c4.19-10.88,6.86-22.03,7.94-33.14
			c4.03-41.32-10.92-82.55-39.98-110.29c-1.37-1.3-2.24-2.89-2.57-4.63c-0.37-1.02-0.57-2.06-0.58-3.1c-0.24-3,1.02-5.79,3.42-7.62
			c0.82-0.9,1.7-1.73,2.64-2.5c0.5-0.78,1.14-1.48,1.91-2.09l19.73-15.77c1.68-1.34,3.77-2.08,5.89-2.08c4.85,0,8.61,3.67,8.75,8.54
			c0.22,7.61-0.91,15.79-3.44,25c-1.29,4.71-2.47,8.52-3.7,12.01c-0.2,0.55-0.44,1.19-0.76,1.87c0.33,0.48,0.66,0.96,0.99,1.45
			c7.95-18.11,13.5-37.08,16.55-56.56c-20.32,3.88-39.84,11.09-58.11,21.5c-1.38,0.79-2.85,1.19-4.36,1.19
			c-3.96,0-7.46-2.79-8.52-6.8c-1.03-3.88,0.58-7.67,4.09-9.67c23.53-13.39,49.27-21.98,76.52-25.51c0.31-0.04,0.63-0.06,0.94-0.06
			c2.3,0,4.58,1.07,6.26,2.94c1.66,1.84,2.47,4.18,2.23,6.42c-3.18,29.87-11.56,58.54-24.91,85.23
			c17.98,37.48,20.17,81.88,5.78,119.28C378.83,404.11,375.58,406.32,371.74,406.32C371.74,406.32,371.74,406.32,371.74,406.32z"/>
		<path class="st0" d="M128.26,410.14c-3.85,0-7.09-2.21-8.46-5.78c-14.39-37.41-12.2-81.8,5.78-119.28
			c-13.35-26.7-21.73-55.36-24.91-85.24c-0.24-2.24,0.57-4.58,2.23-6.42c1.68-1.87,3.96-2.94,6.26-2.94c0.31,0,0.63,0.02,0.94,0.06
			c27.25,3.54,52.99,12.12,76.52,25.51c3.51,2,5.11,5.79,4.09,9.67c-1.06,4-4.56,6.8-8.52,6.8c-1.51,0-2.98-0.4-4.36-1.19
			c-18.27-10.4-37.79-17.62-58.11-21.5c3.05,19.48,8.59,38.45,16.55,56.56c0.33-0.48,0.66-0.96,0.99-1.45
			c-0.32-0.67-0.56-1.31-0.76-1.87c-1.23-3.48-2.41-7.3-3.7-12.01c-2.53-9.22-3.66-17.4-3.44-25c0.14-4.87,3.9-8.54,8.75-8.54
			c2.12,0,4.21,0.74,5.89,2.08l19.72,15.77c0.77,0.62,1.41,1.32,1.91,2.1c0.95,0.77,1.84,1.61,2.66,2.51
			c2.4,1.86,3.64,4.63,3.4,7.61c-0.01,1.04-0.21,2.08-0.58,3.1c-0.33,1.74-1.2,3.32-2.57,4.62
			c-29.07,27.74-44.01,68.97-39.98,110.29c1.08,11.11,3.75,22.26,7.94,33.14c1.02,2.65,0.73,5.43-0.78,7.63
			C134.1,408.73,131.31,410.14,128.26,410.14z"/>
	</g>
	<path class="st0" d="M197.55,231.63c-4.51,0-8.3-3.5-8.8-8.15c-0.48-4.46,2.24-8.24,6.62-9.2c18.97-4.15,38.43-6.25,57.86-6.25
		c17.15,0,34.4,1.64,51.27,4.88c4.41,0.85,7.19,4.55,6.77,9.01c-0.45,4.76-4.29,8.34-8.92,8.34c-0.58,0-1.17-0.06-1.76-0.17
		c-15.51-2.98-31.42-4.49-47.28-4.49c-18.06,0-36.15,1.95-53.77,5.81C198.87,231.56,198.2,231.63,197.55,231.63L197.55,231.63z"/>
	<path class="st0" d="M250,213.84c-4.85,0-8.79-3.95-8.79-8.79v-18.97c0-4.85,3.95-8.79,8.79-8.79s8.79,3.95,8.79,8.79v18.97
		C258.79,209.9,254.85,213.84,250,213.84z"/>
	<path class="st0" d="M250,13.65c-45.31,0-82.04,36.73-82.04,82.04c0,45.31,36.73,82.04,82.04,82.04s82.04-36.73,82.04-82.04
		C332.04,50.39,295.31,13.65,250,13.65z M250,78.55c-9.78,0-17.71-7.93-17.71-17.71s7.93-17.71,17.71-17.71
		c9.78,0,17.71,7.93,17.71,17.71S259.78,78.55,250,78.55z"/>
</g>
</svg>
