<?xml version="1.0" encoding="utf-8"?>
<!-- Generator: Adobe Illustrator 27.0.0, SVG Export Plug-In . SVG Version: 6.00 Build 0)  -->
<svg version="1.1" id="레이어_1" xmlns="http://www.w3.org/2000/svg" xmlns:xlink="http://www.w3.org/1999/xlink" x="0px"
	 y="0px" viewBox="0 0 1000 562.5" style="enable-background:new 0 0 1000 562.5;" xml:space="preserve">
<style type="text/css">
	.st0{fill:#FFFFFF;}
	.st1{fill:#7B9FD3;}
</style>
<g>
	<g>
		<path class="st0" d="M96.13,448.35c0.37,0,0.68,0.12,0.91,0.36c0.24,0.24,0.36,0.52,0.36,0.83v2.86c0,1.33-0.46,2.45-1.39,3.38
			c-0.93,0.93-2.06,1.39-3.38,1.39H66.86v19.97h25.3c0.37,0,0.68,0.12,0.91,0.36c0.24,0.24,0.36,0.52,0.36,0.83v2.94
			c0,1.27-0.46,2.37-1.39,3.3c-0.93,0.93-2.03,1.39-3.3,1.39H66.86v31.42h-8.67v-69.05H96.13z"/>
		<path class="st0" d="M141.72,448.35c0.37,0,0.68,0.12,0.91,0.36c0.24,0.24,0.36,0.52,0.36,0.83v2.86c0,1.33-0.46,2.45-1.39,3.38
			c-0.93,0.93-2.06,1.39-3.38,1.39h-25.77v19.97h25.3c0.37,0,0.68,0.12,0.91,0.36c0.24,0.24,0.36,0.52,0.36,0.83v2.94
			c0,1.27-0.46,2.37-1.39,3.3c-0.93,0.93-2.03,1.39-3.3,1.39h-21.88v31.42h-8.67v-69.05H141.72z"/>
		<path class="st0" d="M181.06,482.4l22.19,35h-10.5l-16.79-26.73l-14.88,23.47c-0.64,1.06-1.46,1.87-2.47,2.43
			c-1.01,0.56-2.12,0.83-3.34,0.83h-4.53c-0.48,0-0.82-0.2-1.03-0.6c-0.21-0.4-0.19-0.78,0.08-1.15l20.92-33.25l-21.48-34.05h10.34
			l16.39,25.85l16.31-25.85h10.42L181.06,482.4z"/>
		<path class="st0" d="M209.62,516.2v-67.86h8.83v64.36c0,1.32-0.46,2.44-1.36,3.34c-0.91,0.9-2.03,1.35-3.37,1.35h-2.89
			c-0.38,0-0.67-0.12-0.88-0.36C209.73,516.8,209.62,516.52,209.62,516.2z"/>
		<path class="st0" d="M249.13,496.08l16.71-47.73h9.15l-22.27,65.87c-0.27,0.85-0.73,1.47-1.39,1.87c-0.66,0.4-1.35,0.6-2.07,0.6
			c-0.72,0-1.41-0.21-2.07-0.64c-0.66-0.42-1.13-1.06-1.39-1.91l-21-65.79h9.07L249.13,496.08z"/>
		<path class="st0" d="M343.41,481.28c1.96,1.96,3.48,4.23,4.56,6.8c1.08,2.57,1.63,5.29,1.63,8.15c0,2.81-0.54,5.5-1.63,8.07
			c-1.09,2.57-2.61,4.86-4.56,6.88c-2.01,1.96-4.3,3.49-6.86,4.57c-2.57,1.09-5.25,1.63-8.06,1.63h-17.31
			c-0.32,0-0.6-0.12-0.84-0.36c-0.24-0.24-0.36-0.52-0.36-0.84v-2.97c0-1.29,0.46-2.4,1.39-3.33c0.93-0.94,2-1.4,3.22-1.4h13.88
			v0.08c1.69,0,3.29-0.33,4.8-0.99c1.51-0.66,2.8-1.55,3.89-2.66c1.08-1.11,1.96-2.42,2.62-3.93c0.66-1.51,0.99-3.11,0.99-4.8
			c0-1.69-0.33-3.28-0.99-4.76c-0.66-1.48-1.54-2.79-2.63-3.93c-1.09-1.14-2.39-2.03-3.9-2.7c-1.51-0.66-3.12-0.99-4.81-0.99h-4.93
			c-2.39,0-4.65-0.44-6.8-1.32c-2.15-0.88-4.07-2.17-5.77-3.87c-1.7-1.7-2.98-3.63-3.86-5.78c-0.88-2.15-1.31-4.45-1.31-6.9
			c0-2.34,0.44-4.58,1.32-6.74c0.88-2.15,2.18-4.08,3.89-5.78c3.47-3.45,7.67-5.18,12.6-5.18h19.65c0.37,0,0.68,0.12,0.91,0.36
			c0.24,0.24,0.36,0.52,0.36,0.84v2.89c0,1.34-0.46,2.46-1.39,3.37c-0.93,0.91-2.06,1.36-3.38,1.36h-16.15
			c-1.22,0-2.37,0.23-3.46,0.68c-1.09,0.45-2.04,1.09-2.86,1.91c-0.82,0.82-1.47,1.79-1.95,2.9c-0.48,1.11-0.72,2.26-0.72,3.42
			c0,1.27,0.24,2.45,0.71,3.54c0.48,1.09,1.12,2.03,1.95,2.82c0.82,0.8,1.77,1.43,2.86,1.91c1.08,0.48,2.23,0.72,3.45,0.72h4.92
			c2.8,0,5.49,0.54,8.06,1.63C339.11,477.72,341.39,479.27,343.41,481.28z"/>
		<path class="st0" d="M355.93,516.2v-67.86h8.83v64.36c0,1.32-0.46,2.44-1.36,3.34c-0.91,0.9-2.03,1.35-3.37,1.35h-2.89
			c-0.38,0-0.67-0.12-0.88-0.36C356.04,516.8,355.93,516.52,355.93,516.2z"/>
		<path class="st0" d="M425.74,448.35h8.27v64.36c0,1.32-0.47,2.44-1.39,3.34c-0.93,0.9-2.06,1.35-3.38,1.35h-2.78
			c-0.37,0-0.68-0.12-0.91-0.36c-0.24-0.24-0.36-0.52-0.36-0.84v-52.74l-19.77,25.93c-0.69,0.9-1.56,1.35-2.62,1.35
			c-1.06,0-1.93-0.45-2.62-1.35l-19.77-25.93v52.74c0,0.32-0.13,0.6-0.4,0.84c-0.27,0.24-0.54,0.36-0.8,0.36h-7.63v-69.05h8.27
			l0.55,0.64l22.36,29.43l22.43-29.43L425.74,448.35z"/>
		<path class="st0" d="M475.91,496.24v-47.89h8.83v47.41c0,2.92-0.56,5.69-1.67,8.31c-1.11,2.63-2.7,4.97-4.77,7.04
			c-2.07,2.07-4.43,3.66-7.08,4.77c-2.65,1.11-5.46,1.67-8.43,1.67c-2.97,0-5.78-0.56-8.43-1.67c-2.65-1.11-5.01-2.7-7.08-4.77
			c-2.12-2.07-3.73-4.43-4.81-7.08c-1.09-2.65-1.63-5.46-1.63-8.43v-47.25h8.83v48.29c0,0.9,0.17,1.88,0.51,2.94
			c0.34,1.06,0.79,2.07,1.35,3.02c0.55,0.96,1.22,1.8,1.98,2.55c0.77,0.74,1.6,1.35,2.5,1.83c2.38,1.27,4.74,1.87,7.1,1.79
			c2.35-0.08,4.47-0.68,6.35-1.79c1.88-1.11,3.4-2.61,4.56-4.49C475.16,500.6,475.8,498.52,475.91,496.24z"/>
		<path class="st0" d="M529.65,508.57c0.85,0,1.27,0.42,1.27,1.27v2.86c0,1.32-0.47,2.44-1.39,3.34c-0.93,0.9-2.06,1.35-3.38,1.35
			h-34.6v-67.86c0-0.32,0.11-0.6,0.32-0.83c0.21-0.24,0.51-0.36,0.88-0.36h2.89c1.34,0,2.46,0.44,3.37,1.31
			c0.91,0.88,1.36,1.98,1.36,3.3v55.61H529.65z"/>
		<path class="st0" d="M589.41,517.4h-9.39l-6.21-18.85h-15.35c-0.37,0-0.68-0.12-0.91-0.36c-0.24-0.24-0.36-0.52-0.36-0.84v-2.86
			c0-1.33,0.46-2.45,1.39-3.38c0.93-0.93,2.03-1.39,3.3-1.39h8.99l-7.56-23.07l-17.26,50.75h-9.23l22.99-69.05h2.71
			c1.75,0,3,0.39,3.74,1.15c0.74,0.77,1.3,1.74,1.67,2.9L589.41,517.4z"/>
		<path class="st0" d="M631.18,448.35c0.32,0,0.6,0.12,0.83,0.36c0.24,0.24,0.36,0.52,0.36,0.83v2.86c0,1.33-0.47,2.45-1.39,3.38
			c-0.93,0.93-2.06,1.39-3.38,1.39h-14.4v60.22h-8.83v-60.22H585.2v-8.83H631.18z"/>
		<path class="st0" d="M638.7,516.2v-67.86h8.83v64.36c0,1.32-0.46,2.44-1.37,3.34c-0.91,0.9-2.03,1.35-3.37,1.35h-2.89
			c-0.38,0-0.67-0.12-0.88-0.36C638.81,516.8,638.7,516.52,638.7,516.2z"/>
		<path class="st0" d="M681.62,517.32h-5.58c-2.92,0-5.76-0.58-8.53-1.75c-2.66-1.11-4.99-2.68-7.01-4.7
			c-2.02-2.02-3.59-4.33-4.7-6.93c-1.12-2.66-1.67-5.5-1.67-8.52v-25.33c0-3.08,0.56-5.95,1.67-8.6c1.06-2.55,2.63-4.86,4.7-6.93
			c2.07-2.02,4.41-3.58,7.01-4.7c2.6-1.11,5.44-1.67,8.53-1.67h5.58c3.03,0,5.87,0.56,8.53,1.67c2.6,1.11,4.91,2.68,6.93,4.7
			c2.07,2.02,3.66,4.33,4.78,6.93c1.11,2.66,1.67,5.52,1.67,8.6v25.33c0,3.03-0.56,5.87-1.67,8.52c-1.17,2.65-2.76,4.96-4.78,6.93
			c-1.97,1.96-4.28,3.53-6.93,4.7C687.38,516.73,684.54,517.32,681.62,517.32z M676,457.02c-1.86,0-3.57,0.33-5.13,0.99
			c-1.57,0.66-2.96,1.6-4.18,2.82c-1.22,1.22-2.17,2.63-2.86,4.22c-0.69,1.59-1.03,3.29-1.03,5.09v25.3c0,1.8,0.35,3.5,1.03,5.09
			c0.69,1.59,1.64,2.97,2.86,4.14c1.22,1.17,2.61,2.09,4.18,2.78c1.56,0.69,3.27,1.03,5.13,1.03h5.57c1.8,0,3.5-0.35,5.09-1.03
			c1.59-0.69,3-1.62,4.22-2.78c1.22-1.17,2.16-2.55,2.82-4.14c0.66-1.59,0.99-3.29,0.99-5.09v-25.3c0-1.8-0.33-3.5-0.99-5.09
			c-0.66-1.59-1.6-3-2.82-4.22c-1.22-1.22-2.63-2.16-4.22-2.82c-1.59-0.66-3.29-0.99-5.09-0.99H676z"/>
		<path class="st0" d="M751.37,501.89v-53.54h8.83v64.36c0,1.27-0.44,2.36-1.31,3.26c-0.87,0.9-1.92,1.38-3.14,1.43h-3.65
			c-1.06,0-1.83-0.42-2.3-1.27l-30.88-50.91v50.99c0,0.32-0.13,0.6-0.4,0.84c-0.27,0.24-0.54,0.36-0.8,0.36h-7.63v-69.05h8.83
			L751.37,501.89z"/>
		<path class="st0" d="M834.34,467.12c0,2.55-0.48,4.95-1.43,7.2c-0.95,2.25-2.31,4.31-4.06,6.17c-0.27,0.27-0.55,0.5-0.84,0.72
			c-0.29,0.21-0.57,0.42-0.83,0.64l1.27,1.19c1.86,1.91,3.3,4.08,4.34,6.52c1.03,2.44,1.55,5.04,1.55,7.8c0,2.65-0.52,5.2-1.55,7.64
			c-1.03,2.44-2.48,4.61-4.34,6.52c-1.75,1.75-3.73,3.13-5.93,4.14c-2.2,1.01-4.55,1.59-7.04,1.75h-24.5v-67.86
			c0-0.32,0.11-0.6,0.32-0.83c0.21-0.24,0.48-0.36,0.8-0.36h23.39c2.55,0,4.96,0.47,7.24,1.39c2.28,0.93,4.32,2.29,6.13,4.1
			c1.75,1.8,3.1,3.85,4.06,6.13C833.86,462.24,834.34,464.63,834.34,467.12z M814.8,508.57c1.48-0.05,2.88-0.39,4.2-0.99
			c1.32-0.61,2.46-1.42,3.41-2.43c0.95-1.01,1.71-2.19,2.26-3.54c0.55-1.35,0.83-2.77,0.83-4.26c0-1.54-0.28-2.98-0.83-4.34
			c-0.56-1.35-1.31-2.53-2.27-3.54c-0.95-1.01-2.1-1.83-3.42-2.47c-1.33-0.64-2.73-0.98-4.22-1.03h-11.46
			c-0.32,0-0.6-0.12-0.83-0.36c-0.24-0.24-0.36-0.54-0.36-0.91v-2.86c0-1.27,0.46-2.37,1.39-3.3c0.93-0.93,2.05-1.39,3.38-1.39h9.15
			c1.32-0.05,2.57-0.36,3.74-0.91c1.17-0.56,2.16-1.29,2.98-2.19c0.82-0.9,1.48-1.93,1.99-3.1c0.5-1.17,0.76-2.44,0.76-3.82
			c0-1.32-0.26-2.61-0.79-3.86c-0.53-1.25-1.24-2.33-2.14-3.26c-0.9-0.93-1.96-1.64-3.17-2.15c-1.21-0.5-2.51-0.76-3.89-0.76v0.08
			h-15.7v51.39H814.8z"/>
		<path class="st0" d="M868.19,517.32h-5.58c-2.92,0-5.76-0.58-8.53-1.75c-2.66-1.11-4.99-2.68-7.01-4.7
			c-2.02-2.02-3.59-4.33-4.7-6.93c-1.12-2.66-1.67-5.5-1.67-8.52v-25.33c0-3.08,0.56-5.95,1.67-8.6c1.06-2.55,2.63-4.86,4.7-6.93
			c2.07-2.02,4.41-3.58,7.01-4.7c2.6-1.11,5.44-1.67,8.53-1.67h5.58c3.03,0,5.87,0.56,8.53,1.67c2.6,1.11,4.91,2.68,6.93,4.7
			c2.07,2.02,3.66,4.33,4.78,6.93c1.11,2.66,1.67,5.52,1.67,8.6v25.33c0,3.03-0.56,5.87-1.67,8.52c-1.17,2.65-2.76,4.96-4.78,6.93
			c-1.97,1.96-4.28,3.53-6.93,4.7C873.95,516.73,871.11,517.32,868.19,517.32z M862.58,457.02c-1.86,0-3.57,0.33-5.13,0.99
			c-1.57,0.66-2.96,1.6-4.18,2.82c-1.22,1.22-2.17,2.63-2.86,4.22c-0.69,1.59-1.03,3.29-1.03,5.09v25.3c0,1.8,0.35,3.5,1.03,5.09
			c0.69,1.59,1.64,2.97,2.86,4.14c1.22,1.17,2.61,2.09,4.18,2.78c1.56,0.69,3.27,1.03,5.13,1.03h5.57c1.8,0,3.5-0.35,5.09-1.03
			c1.59-0.69,3-1.62,4.22-2.78c1.22-1.17,2.16-2.55,2.82-4.14c0.66-1.59,0.99-3.29,0.99-5.09v-25.3c0-1.8-0.33-3.5-0.99-5.09
			c-0.66-1.59-1.6-3-2.82-4.22c-1.22-1.22-2.63-2.16-4.22-2.82c-1.59-0.66-3.29-0.99-5.09-0.99H862.58z"/>
		<path class="st0" d="M940.62,448.35c0.32,0,0.6,0.12,0.83,0.36c0.24,0.24,0.36,0.52,0.36,0.83v2.86c0,1.33-0.47,2.45-1.39,3.38
			c-0.93,0.93-2.06,1.39-3.38,1.39h-14.4v60.22h-8.83v-60.22h-19.17v-8.83H940.62z"/>
	</g>
	<g>
		<path class="st1" d="M400.42,369.5c-3.85,16.57,9.34,29.36,22.98,35.96c15.43,7.47,32.46,10.6,49.44,11.94
			c17.75,1.41,35.91,1.7,53.67,0.35c16.83-1.27,34.06-4.44,49.16-12.28c15.25-7.92,28.31-23.75,23.61-41.92
			c-0.97-3.76-6.79-2.16-5.82,1.6c3.81,14.7-7.04,27.46-19.1,34.17c-13.48,7.51-29.34,10.72-44.57,12.12
			c-15.64,1.44-31.5,1.22-47.18,0.52c-15.56-0.7-31.22-2.47-46.02-7.56c-13.79-4.74-34.54-15.31-30.37-33.3
			C407.11,367.32,401.3,365.71,400.42,369.5L400.42,369.5z"/>
		<g>
			<path class="st1" d="M413.89,341.31c18.78,4.22,36.31,12.4,51.65,24.02c3.09,2.35,6.1-2.89,3.05-5.21
				c-15.7-11.91-33.87-20.31-53.09-24.63C411.71,334.64,410.09,340.46,413.89,341.31L413.89,341.31z"/>
			<path class="st1" d="M584.51,336.1c-19.23,4.32-37.39,12.73-53.09,24.63c-3.05,2.32-0.05,7.56,3.05,5.21
				c15.34-11.63,32.87-19.8,51.65-24.02C589.9,341.06,588.3,335.25,584.51,336.1L584.51,336.1z"/>
		</g>
		<ellipse class="st1" cx="500" cy="386.44" rx="11.16" ry="13.88"/>
		<g>
			<path class="st1" d="M603.72,359.63c5.85-1.17,11.7-2.34,17.56-3.51c3.8-0.76,2.19-6.58-1.6-5.82
				c-5.85,1.17-11.7,2.34-17.56,3.51C598.32,354.57,599.93,360.39,603.72,359.63L603.72,359.63z"/>
			<path class="st1" d="M610.93,374.15c4.54,0.54,9.07,1.07,13.61,1.61c3.85,0.46,3.82-5.58,0-6.03c-4.54-0.54-9.07-1.07-13.61-1.61
				C607.08,367.66,607.11,373.69,610.93,374.15L610.93,374.15z"/>
			<path class="st1" d="M397.88,357.43c-5.85-1.17-11.7-2.34-17.56-3.51c-3.79-0.76-5.41,5.06-1.6,5.82
				c5.85,1.17,11.7,2.34,17.56,3.51C400.07,364.01,401.69,358.2,397.88,357.43L397.88,357.43z"/>
			<path class="st1" d="M389.07,371.73c-4.54,0.54-9.07,1.07-13.61,1.61c-3.81,0.45-3.85,6.49,0,6.03
				c4.54-0.54,9.07-1.07,13.61-1.61C392.88,377.31,392.93,371.28,389.07,371.73L389.07,371.73z"/>
		</g>
		<g>
			<path class="st1" d="M611.1,185.68c-20.8,2.7-40.8,9.3-59.04,19.69c-3.37,1.92-0.34,7.14,3.05,5.21
				c16.25-9.25,34.09-15.53,52.56-18.37c-2.53,20.06-8.38,39.63-17.23,57.8c-0.2-0.35-0.4-0.7-0.6-1.04c-1.7-2.85-3.55-5.62-5.5-8.3
				c0.77-0.7,1.27-1.74,1.67-2.87c1.07-3.03,1.99-6.13,2.84-9.23c1.67-6.07,2.76-12.3,2.58-18.6c-0.08-2.81-3.16-3.73-5.15-2.13
				c-5.2,4.16-10.4,8.31-15.59,12.47c-0.45,0.36-0.74,0.77-0.9,1.18c-0.92,0.67-1.76,1.44-2.52,2.32c-0.01,0.01-0.02,0.02-0.04,0.03
				c-1.12,0.73-1.5,1.83-1.37,2.86c-0.02,0.55,0.12,1.08,0.35,1.6c0.04,0.63,0.32,1.26,0.91,1.83
				c24.17,23.07,36.04,57.31,32.81,90.43c-0.91,9.33-3.16,18.49-6.52,27.23c-1.39,3.63,4.44,5.2,5.82,1.6
				c11.5-29.9,8.98-64.38-5.3-92.91c10.86-21.18,17.66-44.1,20.18-67.77C614.27,187.22,612.6,185.49,611.1,185.68z"/>
			<path class="st1" d="M388.9,188.7c20.8,2.7,40.8,9.3,59.04,19.69c3.37,1.92,0.34,7.14-3.05,5.21
				c-16.25-9.25-34.09-15.53-52.56-18.37c2.53,20.06,8.38,39.63,17.23,57.8c0.2-0.35,0.4-0.7,0.6-1.04c1.7-2.85,3.55-5.62,5.5-8.3
				c-0.77-0.7-1.27-1.74-1.67-2.87c-1.07-3.03-1.99-6.13-2.84-9.23c-1.67-6.07-2.76-12.3-2.58-18.6c0.08-2.81,3.16-3.73,5.15-2.13
				c5.2,4.16,10.4,8.31,15.59,12.47c0.45,0.36,0.74,0.77,0.9,1.18c0.92,0.67,1.76,1.44,2.52,2.32c0.01,0.01,0.02,0.02,0.04,0.03
				c1.12,0.73,1.5,1.83,1.37,2.86c0.02,0.55-0.12,1.08-0.35,1.6c-0.04,0.63-0.32,1.26-0.91,1.83
				c-24.17,23.07-36.04,57.31-32.81,90.43c0.91,9.33,3.16,18.49,6.52,27.23c1.39,3.63-4.44,5.2-5.82,1.6
				c-11.5-29.9-8.98-64.38,5.3-92.91c-10.86-21.18-17.66-44.1-20.18-67.77C385.73,190.23,387.4,188.5,388.9,188.7z"/>
		</g>
		<path class="st1" d="M459.26,213.23c26.77-5.85,54.57-6.23,81.48-1.06c3.79,0.73,5.42-5.09,1.6-5.82
			c-28.02-5.38-56.81-5.04-84.68,1.06C453.86,208.24,455.47,214.06,459.26,213.23L459.26,213.23z"/>
		<path class="st1" d="M500,199.25c-1.66,0-3-1.34-3-3v-15c0-1.66,1.34-3,3-3c1.66,0,3,1.34,3,3v15
			C503,197.91,501.66,199.25,500,199.25z"/>
		<path class="st1" d="M500,44.94c-35.82,0-64.86,29.04-64.86,64.86c0,35.82,29.04,64.86,64.86,64.86s64.86-29.04,64.86-64.86
			C564.86,73.98,535.82,44.94,500,44.94z M500,96.25c-7.73,0-14-6.27-14-14s6.27-14,14-14s14,6.27,14,14S507.73,96.25,500,96.25z"/>
	</g>
</g>
</svg>
