<?xml version="1.0" encoding="UTF-8"?>
<svg id="_레이어_1" data-name="레이어 1" xmlns="http://www.w3.org/2000/svg" version="1.1" viewBox="0 0 1000 562.5">
  <defs>
    <style>
      .cls-1 {
        fill: #7b9fd3;
      }

      .cls-1, .cls-2 {
        stroke-width: 0px;
      }

      .cls-2 {
        fill: #fff;
      }
    </style>
  </defs>
  <g>
    <path class="cls-2" d="M96.1,448.4c.4,0,.7.1.9.4.2.2.4.5.4.8v2.9c0,1.3-.5,2.5-1.4,3.4s-2.1,1.4-3.4,1.4h-25.8v20h25.3c.4,0,.7.1.9.4.2.2.4.5.4.8v2.9c0,1.3-.5,2.4-1.4,3.3s-2,1.4-3.3,1.4h-21.9v31.4h-8.7v-69h37.9Z"/>
    <path class="cls-2" d="M141.7,448.4c.4,0,.7.1.9.4.2.2.4.5.4.8v2.9c0,1.3-.5,2.5-1.4,3.4s-2.1,1.4-3.4,1.4h-25.8v20h25.3c.4,0,.7.1.9.4.2.2.4.5.4.8v2.9c0,1.3-.5,2.4-1.4,3.3s-2,1.4-3.3,1.4h-21.9v31.4h-8.7v-69h37.9Z"/>
    <path class="cls-2" d="M181.1,482.4l22.2,35h-10.5l-16.8-26.7-14.9,23.5c-.6,1.1-1.5,1.9-2.5,2.4s-2.1.8-3.3.8h-4.5c-.5,0-.8-.2-1-.6-.2-.4-.2-.8,0-1.2l20.9-33.2-21.5-34h10.3l16.4,25.9,16.3-25.9h10.4l-21.6,34Z"/>
    <path class="cls-2" d="M209.6,516.2v-67.9h8.8v64.4c0,1.3-.5,2.4-1.4,3.3-.9.9-2,1.3-3.4,1.3h-2.9c-.4,0-.7-.1-.9-.4-.2-.2-.3-.5-.3-.8Z"/>
    <path class="cls-2" d="M249.1,496.1l16.7-47.7h9.1l-22.3,65.9c-.3.8-.7,1.5-1.4,1.9s-1.4.6-2.1.6-1.4-.2-2.1-.6c-.7-.4-1.1-1.1-1.4-1.9l-21-65.8h9.1l15.3,47.7Z"/>
    <path class="cls-2" d="M343.4,481.3c2,2,3.5,4.2,4.6,6.8,1.1,2.6,1.6,5.3,1.6,8.1s-.5,5.5-1.6,8.1-2.6,4.9-4.6,6.9c-2,2-4.3,3.5-6.9,4.6-2.6,1.1-5.2,1.6-8.1,1.6h-17.3c-.3,0-.6-.1-.8-.4s-.4-.5-.4-.8v-3c0-1.3.5-2.4,1.4-3.3.9-.9,2-1.4,3.2-1.4h13.9c1.7,0,3.3-.2,4.8-.9,1.5-.7,2.8-1.5,3.9-2.7,1.1-1.1,2-2.4,2.6-3.9.7-1.5,1-3.1,1-4.8s-.3-3.3-1-4.8-1.5-2.8-2.6-3.9c-1.1-1.1-2.4-2-3.9-2.7-1.5-.7-3.1-1-4.8-1h-4.9c-2.4,0-4.6-.4-6.8-1.3s-4.1-2.2-5.8-3.9-3-3.6-3.9-5.8c-.9-2.1-1.3-4.5-1.3-6.9s.4-4.6,1.3-6.7c.9-2.1,2.2-4.1,3.9-5.8,3.5-3.5,7.7-5.2,12.6-5.2h19.6c.4,0,.7.1.9.4.2.2.4.5.4.8v2.9c0,1.3-.5,2.5-1.4,3.4-.9.9-2.1,1.4-3.4,1.4h-16.1c-1.2,0-2.4.2-3.5.7-1.1.5-2,1.1-2.9,1.9-.8.8-1.5,1.8-2,2.9s-.7,2.3-.7,3.4.2,2.5.7,3.5c.5,1.1,1.1,2,2,2.8.8.8,1.8,1.4,2.9,1.9,1.1.5,2.2.7,3.5.7h4.9c2.8,0,5.5.5,8.1,1.6,2.6,1.1,4.8,2.7,6.9,4.7Z"/>
    <path class="cls-2" d="M355.9,516.2v-67.9h8.8v64.4c0,1.3-.5,2.4-1.4,3.3-.9.9-2,1.3-3.4,1.3h-2.9c-.4,0-.7-.1-.9-.4-.2-.2-.3-.5-.3-.8Z"/>
    <path class="cls-2" d="M425.7,448.4h8.3v64.4c0,1.3-.5,2.4-1.4,3.3-.9.9-2.1,1.3-3.4,1.3h-2.8c-.4,0-.7-.1-.9-.4-.2-.2-.4-.5-.4-.8v-52.7l-19.8,25.9c-.7.9-1.6,1.4-2.6,1.4s-1.9-.5-2.6-1.4l-19.8-25.9v52.7c0,.3-.1.6-.4.8-.3.2-.5.4-.8.4h-7.6v-69h8.3l.5.6,22.4,29.4,22.4-29.4.5-.6Z"/>
    <path class="cls-2" d="M475.9,496.2v-47.9h8.8v47.4c0,2.9-.6,5.7-1.7,8.3-1.1,2.6-2.7,5-4.8,7-2.1,2.1-4.4,3.7-7.1,4.8-2.6,1.1-5.5,1.7-8.4,1.7s-5.8-.6-8.4-1.7-5-2.7-7.1-4.8c-2.1-2.1-3.7-4.4-4.8-7.1-1.1-2.6-1.6-5.5-1.6-8.4v-47.2h8.8v48.3c0,.9.2,1.9.5,2.9s.8,2.1,1.4,3c.5,1,1.2,1.8,2,2.5.8.7,1.6,1.4,2.5,1.8,2.4,1.3,4.7,1.9,7.1,1.8,2.4,0,4.5-.7,6.4-1.8,1.9-1.1,3.4-2.6,4.6-4.5,1.1-1.9,1.8-4,1.9-6.3Z"/>
    <path class="cls-2" d="M529.7,508.6c.8,0,1.3.4,1.3,1.3v2.9c0,1.3-.5,2.4-1.4,3.3-.9.9-2.1,1.3-3.4,1.3h-34.6v-67.9c0-.3.1-.6.3-.8.2-.2.5-.4.9-.4h2.9c1.3,0,2.5.4,3.4,1.3.9.9,1.4,2,1.4,3.3v55.6h29.3Z"/>
    <path class="cls-2" d="M589.4,517.4h-9.4l-6.2-18.9h-15.3c-.4,0-.7-.1-.9-.4-.2-.2-.4-.5-.4-.8v-2.9c0-1.3.5-2.5,1.4-3.4s2-1.4,3.3-1.4h9l-7.6-23.1-17.3,50.8h-9.2l23-69h2.7c1.8,0,3,.4,3.7,1.1.7.8,1.3,1.7,1.7,2.9l21.5,65Z"/>
    <path class="cls-2" d="M631.2,448.4c.3,0,.6.1.8.4.2.2.4.5.4.8v2.9c0,1.3-.5,2.5-1.4,3.4-.9.9-2.1,1.4-3.4,1.4h-14.4v60.2h-8.8v-60.2h-19.2v-8.8h46Z"/>
    <path class="cls-2" d="M638.7,516.2v-67.9h8.8v64.4c0,1.3-.5,2.4-1.4,3.3s-2,1.3-3.4,1.3h-2.9c-.4,0-.7-.1-.9-.4-.2-.2-.3-.5-.3-.8Z"/>
    <path class="cls-2" d="M681.6,517.3h-5.6c-2.9,0-5.8-.6-8.5-1.8-2.7-1.1-5-2.7-7-4.7-2-2-3.6-4.3-4.7-6.9-1.1-2.7-1.7-5.5-1.7-8.5v-25.3c0-3.1.6-6,1.7-8.6,1.1-2.5,2.6-4.9,4.7-6.9,2.1-2,4.4-3.6,7-4.7,2.6-1.1,5.4-1.7,8.5-1.7h5.6c3,0,5.9.6,8.5,1.7,2.6,1.1,4.9,2.7,6.9,4.7,2.1,2,3.7,4.3,4.8,6.9,1.1,2.7,1.7,5.5,1.7,8.6v25.3c0,3-.6,5.9-1.7,8.5-1.2,2.6-2.8,5-4.8,6.9-2,2-4.3,3.5-6.9,4.7-2.8,1.2-5.6,1.8-8.5,1.8ZM676,457c-1.9,0-3.6.3-5.1,1-1.6.7-3,1.6-4.2,2.8s-2.2,2.6-2.9,4.2-1,3.3-1,5.1v25.3c0,1.8.3,3.5,1,5.1.7,1.6,1.6,3,2.9,4.1s2.6,2.1,4.2,2.8c1.6.7,3.3,1,5.1,1h5.6c1.8,0,3.5-.4,5.1-1,1.6-.7,3-1.6,4.2-2.8,1.2-1.2,2.2-2.5,2.8-4.1.7-1.6,1-3.3,1-5.1v-25.3c0-1.8-.3-3.5-1-5.1s-1.6-3-2.8-4.2c-1.2-1.2-2.6-2.2-4.2-2.8-1.6-.7-3.3-1-5.1-1h-5.6Z"/>
    <path class="cls-2" d="M751.4,501.9v-53.5h8.8v64.4c0,1.3-.4,2.4-1.3,3.3s-1.9,1.4-3.1,1.4h-3.7c-1.1,0-1.8-.4-2.3-1.3l-30.9-50.9v51c0,.3-.1.6-.4.8-.3.2-.5.4-.8.4h-7.6v-69h8.8l32.5,53.5Z"/>
    <path class="cls-2" d="M834.3,467.1c0,2.5-.5,5-1.4,7.2s-2.3,4.3-4.1,6.2c-.3.3-.5.5-.8.7-.3.2-.6.4-.8.6l1.3,1.2c1.9,1.9,3.3,4.1,4.3,6.5,1,2.4,1.5,5,1.5,7.8s-.5,5.2-1.5,7.6c-1,2.4-2.5,4.6-4.3,6.5-1.8,1.8-3.7,3.1-5.9,4.1s-4.5,1.6-7,1.8h-24.5v-67.9c0-.3.1-.6.3-.8.2-.2.5-.4.8-.4h23.4c2.5,0,5,.5,7.2,1.4,2.3.9,4.3,2.3,6.1,4.1,1.8,1.8,3.1,3.9,4.1,6.1.9,2.3,1.4,4.6,1.4,7.1ZM814.8,508.6c1.5,0,2.9-.4,4.2-1,1.3-.6,2.5-1.4,3.4-2.4,1-1,1.7-2.2,2.3-3.5s.8-2.8.8-4.3-.3-3-.8-4.3c-.6-1.4-1.3-2.5-2.3-3.5-1-1-2.1-1.8-3.4-2.5-1.3-.6-2.7-1-4.2-1h-11.5c-.3,0-.6-.1-.8-.4-.2-.2-.4-.5-.4-.9v-2.9c0-1.3.5-2.4,1.4-3.3s2-1.4,3.4-1.4h9.2c1.3,0,2.6-.4,3.7-.9,1.2-.6,2.2-1.3,3-2.2s1.5-1.9,2-3.1c.5-1.2.8-2.4.8-3.8s-.3-2.6-.8-3.9c-.5-1.2-1.2-2.3-2.1-3.3-.9-.9-2-1.6-3.2-2.1-1.2-.5-2.5-.8-3.9-.8h0c0,0-15.7,0-15.7,0v51.4h15Z"/>
    <path class="cls-2" d="M868.2,517.3h-5.6c-2.9,0-5.8-.6-8.5-1.8-2.7-1.1-5-2.7-7-4.7-2-2-3.6-4.3-4.7-6.9-1.1-2.7-1.7-5.5-1.7-8.5v-25.3c0-3.1.6-6,1.7-8.6,1.1-2.5,2.6-4.9,4.7-6.9,2.1-2,4.4-3.6,7-4.7,2.6-1.1,5.4-1.7,8.5-1.7h5.6c3,0,5.9.6,8.5,1.7,2.6,1.1,4.9,2.7,6.9,4.7,2.1,2,3.7,4.3,4.8,6.9,1.1,2.7,1.7,5.5,1.7,8.6v25.3c0,3-.6,5.9-1.7,8.5-1.2,2.6-2.8,5-4.8,6.9-2,2-4.3,3.5-6.9,4.7-2.8,1.2-5.6,1.8-8.5,1.8ZM862.6,457c-1.9,0-3.6.3-5.1,1-1.6.7-3,1.6-4.2,2.8s-2.2,2.6-2.9,4.2-1,3.3-1,5.1v25.3c0,1.8.3,3.5,1,5.1.7,1.6,1.6,3,2.9,4.1s2.6,2.1,4.2,2.8c1.6.7,3.3,1,5.1,1h5.6c1.8,0,3.5-.4,5.1-1,1.6-.7,3-1.6,4.2-2.8,1.2-1.2,2.2-2.5,2.8-4.1.7-1.6,1-3.3,1-5.1v-25.3c0-1.8-.3-3.5-1-5.1s-1.6-3-2.8-4.2c-1.2-1.2-2.6-2.2-4.2-2.8-1.6-.7-3.3-1-5.1-1h-5.6Z"/>
    <path class="cls-2" d="M940.6,448.4c.3,0,.6.1.8.4.2.2.4.5.4.8v2.9c0,1.3-.5,2.5-1.4,3.4-.9.9-2.1,1.4-3.4,1.4h-14.4v60.2h-8.8v-60.2h-19.2v-8.8h46Z"/>
  </g>
  <g>
    <path class="cls-1" d="M400.4,369.5c-3.9,16.6,9.3,29.4,23,36,15.4,7.5,32.5,10.6,49.4,11.9,17.8,1.4,35.9,1.7,53.7.4,16.8-1.3,34.1-4.4,49.2-12.3,15.2-7.9,28.3-23.8,23.6-41.9-1-3.8-6.8-2.2-5.8,1.6,3.8,14.7-7,27.5-19.1,34.2-13.5,7.5-29.3,10.7-44.6,12.1-15.6,1.4-31.5,1.2-47.2.5-15.6-.7-31.2-2.5-46-7.6-13.8-4.7-34.5-15.3-30.4-33.3.9-3.8-4.9-5.4-5.8-1.6h0Z"/>
    <g>
      <path class="cls-1" d="M413.9,341.3c18.8,4.2,36.3,12.4,51.6,24,3.1,2.4,6.1-2.9,3-5.2-15.7-11.9-33.9-20.3-53.1-24.6-3.8-.8-5.4,5-1.6,5.8h0Z"/>
      <path class="cls-1" d="M584.5,336.1c-19.2,4.3-37.4,12.7-53.1,24.6-3,2.3,0,7.6,3,5.2,15.3-11.6,32.9-19.8,51.7-24,3.8-.9,2.2-6.7-1.6-5.8h0Z"/>
    </g>
    <ellipse class="cls-1" cx="500" cy="386.4" rx="11.2" ry="13.9"/>
    <g>
      <path class="cls-1" d="M603.7,359.6c5.8-1.2,11.7-2.3,17.6-3.5,3.8-.8,2.2-6.6-1.6-5.8-5.8,1.2-11.7,2.3-17.6,3.5-3.8.8-2.2,6.6,1.6,5.8h0Z"/>
      <path class="cls-1" d="M610.9,374.1c4.5.5,9.1,1.1,13.6,1.6,3.8.5,3.8-5.6,0-6-4.5-.5-9.1-1.1-13.6-1.6-3.8-.5-3.8,5.6,0,6h0Z"/>
      <path class="cls-1" d="M397.9,357.4c-5.9-1.2-11.7-2.3-17.6-3.5-3.8-.8-5.4,5.1-1.6,5.8,5.9,1.2,11.7,2.3,17.6,3.5,3.8.8,5.4-5,1.6-5.8h0Z"/>
      <path class="cls-1" d="M389.1,371.7c-4.5.5-9.1,1.1-13.6,1.6-3.8.5-3.9,6.5,0,6,4.5-.5,9.1-1.1,13.6-1.6,3.8-.5,3.9-6.5,0-6h0Z"/>
    </g>
    <g>
      <path class="cls-1" d="M611.1,185.7c-20.8,2.7-40.8,9.3-59,19.7-3.4,1.9-.3,7.1,3,5.2,16.2-9.2,34.1-15.5,52.6-18.4-2.5,20.1-8.4,39.6-17.2,57.8-.2-.4-.4-.7-.6-1-1.7-2.9-3.5-5.6-5.5-8.3.8-.7,1.3-1.7,1.7-2.9,1.1-3,2-6.1,2.8-9.2,1.7-6.1,2.8-12.3,2.6-18.6,0-2.8-3.2-3.7-5.2-2.1-5.2,4.2-10.4,8.3-15.6,12.5-.5.4-.7.8-.9,1.2-.9.7-1.8,1.4-2.5,2.3,0,0,0,0,0,0-1.1.7-1.5,1.8-1.4,2.9,0,.6.1,1.1.3,1.6,0,.6.3,1.3.9,1.8,24.2,23.1,36,57.3,32.8,90.4-.9,9.3-3.2,18.5-6.5,27.2-1.4,3.6,4.4,5.2,5.8,1.6,11.5-29.9,9-64.4-5.3-92.9,10.9-21.2,17.7-44.1,20.2-67.8.2-1.5-1.5-3.2-3-3Z"/>
      <path class="cls-1" d="M388.9,188.7c20.8,2.7,40.8,9.3,59,19.7,3.4,1.9.3,7.1-3,5.2-16.2-9.2-34.1-15.5-52.6-18.4,2.5,20.1,8.4,39.6,17.2,57.8.2-.4.4-.7.6-1,1.7-2.9,3.5-5.6,5.5-8.3-.8-.7-1.3-1.7-1.7-2.9-1.1-3-2-6.1-2.8-9.2-1.7-6.1-2.8-12.3-2.6-18.6,0-2.8,3.2-3.7,5.1-2.1,5.2,4.2,10.4,8.3,15.6,12.5.5.4.7.8.9,1.2.9.7,1.8,1.4,2.5,2.3,0,0,0,0,0,0,1.1.7,1.5,1.8,1.4,2.9,0,.6-.1,1.1-.4,1.6,0,.6-.3,1.3-.9,1.8-24.2,23.1-36,57.3-32.8,90.4.9,9.3,3.2,18.5,6.5,27.2,1.4,3.6-4.4,5.2-5.8,1.6-11.5-29.9-9-64.4,5.3-92.9-10.9-21.2-17.7-44.1-20.2-67.8-.2-1.5,1.5-3.2,3-3Z"/>
    </g>
    <path class="cls-1" d="M459.3,213.2c26.8-5.9,54.6-6.2,81.5-1.1,3.8.7,5.4-5.1,1.6-5.8-28-5.4-56.8-5-84.7,1.1-3.8.8-2.2,6.7,1.6,5.8h0Z"/>
    <path class="cls-1" d="M500,199.3c-1.7,0-3-1.3-3-3v-15c0-1.7,1.3-3,3-3s3,1.3,3,3v15c0,1.7-1.3,3-3,3Z"/>
    <path class="cls-1" d="M500,44.9c-35.8,0-64.9,29-64.9,64.9s29,64.9,64.9,64.9,64.9-29,64.9-64.9-29-64.9-64.9-64.9ZM500,96.3c-7.7,0-14-6.3-14-14s6.3-14,14-14,14,6.3,14,14-6.3,14-14,14Z"/>
  </g>
</svg>